<svg version="1.1" id="Layer_1" xmlns="http://www.w3.org/2000/svg" xmlns:xlink="http://www.w3.org/1999/xlink" x="0px" y="0px"
	 width="100%" viewBox="0 0 590 564" enable-background="new 0 0 590 564" xml:space="preserve">
<path fill="#FFF" opacity="1.000000" stroke="none" 
	d="
M1.000001,174.000000 
	C1.000000,116.376251 1.000000,58.752506 1.000000,1.000000 
	C138.354736,1.000000 275.709534,1.000000 413.644501,1.410089 
	C409.807587,2.692785 405.346252,3.387184 400.981415,4.470512 
	C386.325317,8.108106 372.264801,13.317980 360.645935,23.249250 
	C353.763092,29.132378 347.608337,35.891537 341.337585,42.458641 
	C336.598114,47.422100 332.361633,52.867249 327.601227,57.808998 
	C320.105286,65.590515 312.480774,73.257927 304.685425,80.738945 
	C294.223267,90.779266 284.434753,101.827759 272.768311,110.240196 
	C251.581818,125.517319 228.122131,136.455185 201.338287,139.467957 
	C201.338287,140.834641 201.338287,142.225876 201.338287,143.479660 
	C203.079269,144.045151 204.701874,144.377258 206.149307,145.073502 
	C216.733170,150.164551 228.169586,152.275909 239.626434,152.802551 
	C258.028015,153.648468 276.351105,153.025650 294.151459,146.620956 
	C304.801178,142.789093 315.493164,139.200424 324.943695,132.951614 
	C342.246063,121.511063 359.429413,109.879974 376.422485,97.985603 
	C389.444763,88.870605 402.098053,79.228378 415.311829,69.913887 
	C422.245361,72.054749 428.820465,73.989532 435.311676,76.173607 
	C448.587860,80.640579 460.708313,86.985214 471.279297,96.494583 
	C479.278442,103.690445 485.001617,112.077614 487.932709,122.222084 
	C491.173950,133.440002 490.237823,144.843994 487.442566,156.024048 
	C482.327698,176.481750 471.265717,194.193253 461.187195,212.386169 
	C452.462677,228.134918 444.028229,244.063263 436.072723,260.211365 
	C431.941193,268.597626 428.654327,277.482697 425.828888,286.409302 
	C422.114105,298.145752 418.768280,310.043945 416.135162,322.063507 
	C414.057861,331.545990 413.297089,341.316956 411.582520,351.001343 
	C403.430145,354.244873 395.481110,357.100525 387.902191,360.729248 
	C376.276855,366.295380 364.169128,371.321594 353.634125,378.566254 
	C343.033325,385.856232 333.609161,395.092865 324.558746,404.346283 
	C311.005951,418.203033 300.227386,434.389587 292.417267,451.993042 
	C286.529816,465.262878 282.476379,479.538940 279.268463,493.742462 
	C276.825775,504.558136 276.556244,515.945740 276.113129,527.110352 
	C275.612610,539.721863 275.999207,552.368591 276.000000,565.000000 
	C184.395889,565.000000 92.791779,565.000000 1.000000,565.000000 
	C1.000000,443.978638 1.000000,322.957153 1.413667,201.488586 
	C2.248774,204.208679 2.541852,207.399246 3.112420,210.539368 
	C6.902349,231.397034 15.116749,250.438950 26.912643,268.377930 
	C27.924629,270.032867 28.949324,271.283905 29.828718,272.629852 
	C39.864212,287.989319 49.658886,303.512146 59.983982,318.673950 
	C65.608551,326.933319 71.946373,334.731171 78.281219,342.476471 
	C86.099197,352.035187 93.887344,361.663788 102.353302,370.634674 
	C111.340271,380.157593 120.651054,389.485107 130.648361,397.916260 
	C142.923874,408.268707 155.512222,418.447968 168.973663,427.140564 
	C182.308334,435.751282 196.751266,442.709991 210.975143,449.862274 
	C226.762421,457.800659 243.186432,458.477509 259.579163,451.723938 
	C275.809509,445.037262 283.563080,430.873993 287.675079,415.307526 
	C292.096802,398.568298 295.244629,381.362457 295.100555,363.804199 
	C295.079956,361.293579 295.890747,358.580200 297.001770,356.293488 
	C300.129700,349.855774 306.267487,347.977905 311.584808,352.498688 
	C315.638702,355.945343 318.547058,360.747437 321.919098,364.983154 
	C322.953644,366.282654 323.836365,367.702942 324.788635,369.067932 
	C325.165314,368.825806 325.542023,368.583649 325.918701,368.341522 
	C325.614349,366.616516 325.102142,364.899292 325.037445,363.165344 
	C324.301086,343.429718 318.186768,326.005768 304.268402,311.437622 
	C296.119476,302.908234 286.752777,299.896484 278.245026,306.193207 
	C270.464111,311.952057 263.369263,318.944550 257.074829,326.332855 
	C247.764313,337.261414 242.822586,350.728638 237.931015,364.067352 
	C235.912582,369.571289 231.995605,373.020935 226.607132,374.982727 
	C216.743301,378.573761 206.648376,377.763214 196.909637,375.232361 
	C189.719055,373.363739 182.998627,369.685974 176.047958,366.357727 
	C175.821854,355.662750 176.270264,345.496429 173.248383,335.360748 
	C169.450027,322.620667 166.910080,309.506531 163.777679,296.565765 
	C163.273438,294.482635 162.720230,292.366760 161.835480,290.427582 
	C156.170074,278.010468 150.708405,265.486786 144.596802,253.290268 
	C137.070663,238.270889 128.959152,223.545273 121.132324,208.676010 
	C115.446571,197.874313 109.076279,187.351303 104.411263,176.122391 
	C101.251045,168.515610 99.974174,159.976410 98.813057,151.719498 
	C96.185158,133.032150 98.265671,115.056625 109.437378,99.113441 
	C112.655724,94.520538 116.480469,90.352539 120.489922,85.993851 
	C128.711426,86.958427 136.531052,87.579903 144.214737,88.958748 
	C155.757004,91.030014 167.191406,93.695244 178.694855,95.991760 
	C191.956055,98.639183 205.206238,101.373802 218.534729,103.637497 
	C224.354553,104.625931 230.510971,105.573059 236.244644,104.721542 
	C247.973679,102.979645 259.520203,100.008659 271.141876,97.543823 
	C271.298035,96.755363 271.454224,95.966904 271.610413,95.178452 
	C270.051270,93.940712 268.677582,92.189484 266.902924,91.548592 
	C255.414734,87.399849 246.884140,79.485764 239.148163,70.446312 
	C231.207001,61.167076 223.606400,51.546757 215.090836,42.823387 
	C207.328690,34.871796 197.179901,30.053383 186.575577,27.267904 
	C177.592239,24.908213 168.164673,23.555696 158.876633,23.184414 
	C140.340240,22.443434 121.895607,22.685566 104.196930,30.210363 
	C91.166946,35.750210 79.341011,42.880379 69.125900,52.514683 
	C56.781864,64.156860 45.699814,77.024696 36.496029,91.271820 
	C29.979370,101.359360 24.545568,112.152672 18.773432,122.710236 
	C17.450439,125.130058 16.688204,127.862755 15.728437,130.473709 
	C12.828357,138.363144 9.958039,146.263504 6.881157,154.481293 
	C5.450854,160.315414 4.279735,165.843765 2.921120,171.325653 
	C2.675915,172.315033 1.660061,173.113434 1.000001,174.000000 
M280.246643,272.256683 
	C279.382996,272.864899 278.519379,273.473083 276.578735,274.839722 
	C277.632965,270.521820 278.300385,267.710876 279.008667,264.910248 
	C279.634033,262.437561 280.304901,259.976379 280.844330,257.932159 
	C276.357513,257.723145 273.124756,256.966217 270.162354,257.559448 
	C263.789154,258.835693 257.348572,267.543671 256.942871,274.096283 
	C256.737671,277.409882 257.414551,280.425720 260.471985,281.602600 
	C263.909271,282.925720 267.292633,281.953217 268.995972,279.502869 
	C270.641144,280.395447 272.669586,282.235748 273.486633,281.800751 
	C275.953278,280.487579 277.949310,278.290405 279.909760,276.624084 
	C284.011017,285.236603 287.175751,283.372009 292.728607,278.127747 
	C294.781464,279.162750 297.032623,281.171265 298.144196,280.667084 
	C300.145447,279.759430 303.162720,278.352753 301.388245,274.649475 
	C300.733154,273.282227 300.781036,271.295624 301.169800,269.758850 
	C303.002563,262.514343 305.064758,255.327896 307.655884,247.810745 
	C307.437469,246.923172 307.219086,246.035599 306.149750,245.028625 
	C303.410919,245.635834 300.672089,246.243057 297.327515,247.175278 
	C297.551361,248.063889 297.775208,248.952515 298.779236,249.966232 
	C301.336487,249.999557 301.401001,251.207306 300.370667,253.123260 
	C299.561066,254.628799 298.944183,256.237946 298.236877,257.811707 
	C290.650970,255.556656 283.419830,261.109253 281.009552,271.468262 
	C281.009552,271.468262 280.886475,271.945221 280.246643,272.256683 
M193.882751,237.931702 
	C195.276505,233.419617 196.670258,228.907547 198.063995,224.395477 
	C197.602844,224.009354 197.141693,223.623245 196.680542,223.237122 
	C195.443649,224.534058 194.191833,225.817169 192.973694,227.131485 
	C191.480240,228.742874 190.274704,231.308746 188.482513,231.810242 
	C184.927673,232.804977 181.047928,232.941544 177.320068,232.832169 
	C176.186783,232.798904 174.263000,230.868835 174.160736,229.681793 
	C173.780960,225.272568 174.009338,220.810959 174.009338,216.017181 
	C176.003052,216.017181 177.471832,216.123886 178.920349,215.997665 
	C183.733521,215.578278 187.962250,215.880600 188.211349,222.280685 
	C188.221237,222.534882 189.760681,222.729538 190.820618,223.014648 
	C190.820618,216.156784 190.820618,209.709808 190.820618,201.756088 
	C188.172256,205.082077 186.727463,208.542374 184.274948,209.550140 
	C181.364151,210.746170 177.586060,209.831451 174.489746,209.831451 
	C174.489746,204.356705 174.489746,199.486084 174.489746,194.706390 
	C179.656860,194.706390 184.336731,194.706390 189.624390,194.706390 
	C190.252075,196.955170 190.933258,199.395660 191.609406,201.818054 
	C195.117050,200.914886 195.712875,199.470779 194.990723,193.380188 
	C194.681473,190.771988 194.032257,188.919113 190.559204,188.906677 
	C181.476990,188.874191 172.397598,188.289215 163.313889,188.173111 
	C162.051483,188.156967 160.771133,189.544144 160.513306,189.693634 
	C162.761978,192.713272 165.681900,194.830719 165.781250,197.073135 
	C166.266830,208.033279 166.156738,219.031311 165.835114,230.003571 
	C165.785339,231.701584 163.582993,233.363495 162.308487,234.989105 
	C161.463699,236.066650 160.498444,237.049713 158.949402,238.792587 
	C162.714035,238.792587 164.856537,238.792587 167.923843,238.968811 
	C173.012054,238.979218 178.103775,239.108383 183.187210,238.957733 
	C186.500198,238.859558 189.801117,238.354660 193.882751,237.931702 
M260.989594,232.005585 
	C259.730865,233.002197 258.418701,233.939667 257.230072,235.013824 
	C256.249359,235.900055 255.414856,236.948090 254.515564,237.924423 
	C254.849609,238.430176 255.183670,238.935928 255.517715,239.441681 
	C263.552399,238.961182 271.594666,238.580734 279.619629,237.971924 
	C287.578674,237.368118 295.555725,230.683533 296.893616,222.970581 
	C297.785187,217.830551 298.484344,212.407333 297.816040,207.301102 
	C296.609406,198.082016 290.577393,188.617752 278.217072,188.914856 
	C271.657593,189.072510 265.078674,188.216339 258.503937,188.113815 
	C257.187775,188.093292 255.850708,189.413528 254.523285,190.115540 
	C254.709610,190.565155 254.895920,191.014771 255.082245,191.464386 
	C257.013336,192.142853 258.944427,192.821320 260.998566,193.543015 
	C260.998566,206.175934 260.998566,218.632217 260.989594,232.005585 
M389.747192,237.758148 
	C390.659973,236.925842 391.572754,236.093536 392.557831,235.195297 
	C394.293732,239.040817 397.092651,240.360275 400.098328,237.805603 
	C401.971436,236.213593 402.687653,233.260437 403.923035,230.918121 
	C402.657654,230.771835 401.392273,230.625549 399.973297,230.461502 
	C399.973297,224.810364 400.226105,218.802231 399.881622,212.828506 
	C399.663544,209.046646 398.554901,204.703339 394.276581,203.975876 
	C390.320831,203.303284 385.610321,203.292938 382.106201,204.898453 
	C379.132690,206.260849 376.680023,210.152832 378.105438,214.356796 
	C378.470490,215.433548 379.913940,216.708389 380.979553,216.825897 
	C382.052704,216.944244 383.859772,216.005066 384.298553,215.048920 
	C385.080048,213.346024 385.072723,211.281113 385.422821,209.204376 
	C386.099976,209.144470 386.850952,208.841705 387.350098,209.075836 
	C389.256805,209.970276 392.016327,210.598648 392.738159,212.134430 
	C394.115021,215.063873 390.987946,215.336914 389.087708,216.604141 
	C384.974609,219.347061 380.259888,222.155624 377.840698,226.171844 
	C375.820770,229.525330 373.058777,230.095795 370.392639,232.331757 
	C370.392639,224.150848 370.392639,216.639999 370.392639,209.171555 
	C372.424225,209.022354 374.042877,208.903458 375.718475,208.780396 
	C375.718475,207.124435 375.718475,205.726135 375.718475,204.244629 
	C373.726440,204.047134 371.987854,203.874771 369.810059,203.658875 
	C369.810059,199.946686 369.810059,196.554962 369.810059,193.163223 
	C368.949646,192.475143 368.089233,191.787048 367.228821,191.098953 
	C366.742554,192.639328 366.390839,194.238998 365.743256,195.708298 
	C364.197632,199.214981 363.380524,203.298553 358.622498,204.357574 
	C358.132812,204.466568 358.218231,207.159378 358.039734,208.629089 
	C360.051788,208.951096 361.443970,209.173904 363.004486,209.423660 
	C363.004486,217.568253 362.920624,225.387650 363.038513,233.203995 
	C363.101074,237.353287 367.147583,240.362885 370.654785,238.569061 
	C373.068634,237.334442 374.847748,234.858795 376.835571,233.007614 
	C380.726685,239.646545 382.440674,240.397964 389.747192,237.758148 
M233.536713,220.958252 
	C230.014435,211.056610 226.571136,201.125397 222.886032,191.284729 
	C222.323349,189.782120 220.642410,188.698273 219.492737,187.436188 
	C216.743713,193.854691 214.215485,199.154007 212.185226,204.637695 
	C209.048096,213.111023 206.354675,221.748642 203.216202,230.221420 
	C202.645020,231.763412 200.800949,232.811493 199.626419,234.159012 
	C198.553009,235.390488 197.590576,236.718674 195.978638,238.767685 
	C201.984055,238.767685 206.742401,238.767685 213.076660,238.767685 
	C211.129669,236.238541 209.800980,234.512573 208.003799,232.178055 
	C208.881790,229.638077 210.028244,226.321472 211.368347,222.444626 
	C216.425476,224.997284 221.693253,220.167542 226.533630,225.487000 
	C231.601715,231.056686 226.615585,234.376236 224.441711,238.822418 
	C231.091461,238.822418 236.880203,238.822418 242.755676,238.822418 
	C239.802475,232.947495 236.936630,227.246338 233.536713,220.958252 
M331.004120,213.978470 
	C329.964081,221.665436 333.582947,229.943832 328.075043,237.091766 
	C327.825653,237.415436 328.209564,238.227097 328.302704,238.839203 
	C338.662933,238.839203 348.611481,238.839203 358.924194,238.839203 
	C358.795258,237.559555 358.869934,235.624619 358.553467,235.558395 
	C353.205627,234.439087 355.213898,230.242569 355.058624,227.160263 
	C354.824585,222.513245 354.920654,217.844086 355.019501,213.187393 
	C355.114716,208.702255 353.481140,204.799042 349.365601,203.329529 
	C344.730652,201.674515 341.078064,204.425186 338.239746,208.246155 
	C338.029144,206.470703 337.827362,204.769806 337.627533,203.085022 
	C329.515472,203.747253 326.800720,205.864639 328.399780,209.989258 
	C329.267242,211.024200 330.134705,212.059143 331.004120,213.978470 
M326.966980,216.468475 
	C326.262726,214.172348 325.849365,211.733261 324.803436,209.605072 
	C320.489471,200.827530 310.251221,200.301361 304.881714,208.508682 
	C301.010162,214.426331 300.501404,220.760666 301.907318,227.646408 
	C303.457947,235.240784 307.496552,239.094025 315.067780,239.001297 
	C320.281799,238.937439 326.399414,233.059937 326.860718,227.236588 
	C326.954254,226.055679 325.468292,224.749664 324.155151,222.586426 
	C322.274139,229.060318 319.290314,231.625366 315.796051,230.923721 
	C310.609802,229.882324 307.738983,225.192108 308.691772,218.962692 
	C313.123047,218.962692 317.608978,219.104996 322.077393,218.887680 
	C323.703247,218.808609 325.287384,217.872269 326.966980,216.468475 
M337.874390,267.539917 
	C336.702759,272.177460 335.531128,276.815002 334.326965,281.581360 
	C338.928406,282.576874 340.295685,280.694153 341.019653,277.618652 
	C342.287323,272.233368 344.952209,267.738647 349.842651,264.119446 
	C348.636169,270.418793 347.560577,276.034668 346.445221,281.858093 
	C352.264282,281.875793 357.782135,276.996124 355.690918,274.975616 
	C352.944183,272.321777 354.791931,270.272919 355.023743,267.951447 
	C355.250031,265.684906 355.997406,263.425049 355.917847,261.183472 
	C355.785278,257.447144 352.999359,256.087097 349.829865,258.095703 
	C348.217133,259.117706 346.857178,260.538605 345.343048,261.812805 
	C342.103302,255.820145 340.109436,255.562256 335.481750,260.113434 
	C333.140686,253.241318 328.410797,260.482788 324.737854,257.280121 
	C325.115265,259.941681 324.937897,262.365723 325.574066,262.602295 
	C331.214844,264.700104 326.523895,267.752533 326.219391,270.089600 
	C325.722595,273.901825 324.361755,277.601471 323.442078,281.060638 
	C328.936798,283.430298 329.525055,280.174011 329.912048,277.539276 
	C330.719971,272.039062 333.775604,268.123779 337.981598,263.564087 
	C337.981598,265.443298 337.981598,266.105408 337.874390,267.539917 
M222.071060,258.635925 
	C219.250183,262.698212 216.595383,266.890503 213.551941,270.778534 
	C211.406097,273.519897 208.732697,275.848267 206.294846,278.360992 
	C205.956360,278.077362 205.617874,277.793732 205.279388,277.510101 
	C205.279388,278.908936 205.279388,280.307770 205.279388,281.983368 
	C207.184998,281.983368 208.826538,281.983337 210.468094,281.983337 
	C212.254517,281.983337 214.040939,281.983368 215.808167,281.983368 
	C216.193161,270.159485 216.193161,270.159485 225.874802,271.655579 
	C223.694717,275.114777 221.763382,278.179291 219.348282,282.011414 
	C223.486755,282.011414 226.644196,282.271484 229.729660,281.912628 
	C231.543655,281.701660 233.243240,280.507202 234.994278,279.755096 
	C233.663010,278.445740 232.331757,277.136353 230.695221,275.526733 
	C231.370972,265.958923 232.102081,255.607132 232.833191,245.255325 
	C232.450058,245.062546 232.066910,244.869766 231.683777,244.676971 
	C228.616180,249.124481 225.548599,253.571991 222.071060,258.635925 
M408.999481,195.982803 
	C408.999969,206.778061 408.879181,217.575424 409.065186,228.367477 
	C409.132446,232.270264 409.208710,235.690125 403.861481,235.531433 
	C405.911377,239.542297 408.041779,239.892212 421.239807,238.599899 
	C420.687469,237.312820 420.228180,235.232590 419.722198,235.221176 
	C415.117310,235.117218 416.020294,231.845535 416.014587,229.158112 
	C415.984344,214.896988 416.000397,200.635757 416.000397,184.934586 
	C411.645752,186.901520 408.068329,188.419418 404.620972,190.190445 
	C404.155792,190.429398 403.995300,192.114471 404.339996,192.809326 
	C404.620331,193.374451 405.895264,193.403259 406.680878,193.772583 
	C407.482513,194.149414 408.225250,194.651520 408.999481,195.982803 
M361.993958,269.301666 
	C363.288574,275.294586 365.106873,281.396393 358.525513,285.731995 
	C357.668152,285.116608 356.776276,284.476471 354.734558,283.010986 
	C353.943542,285.900818 352.200928,288.702026 352.979004,290.120911 
	C354.980011,293.769623 357.938873,291.595673 359.815704,289.578522 
	C364.638306,284.395477 369.715790,279.300537 373.597870,273.445343 
	C376.072906,269.712341 376.728455,264.719727 377.880676,260.210327 
	C378.097809,259.360657 376.711945,257.197845 376.234894,257.248047 
	C374.936829,257.384674 372.806000,258.237762 372.675934,259.068451 
	C372.394653,260.864990 373.157166,262.824982 373.492767,264.718109 
	C373.970306,264.708862 374.447876,264.699615 374.925446,264.690369 
	C372.896515,267.641846 370.867584,270.593292 368.573486,273.930481 
	C367.992401,269.159698 367.758881,264.949860 366.832947,260.898285 
	C366.513763,259.501801 364.624054,257.825012 363.172607,257.491608 
	C361.438385,257.093231 359.404724,257.998383 357.245483,258.384521 
	C357.245483,259.718170 357.245483,261.122162 357.245483,262.582336 
	C358.922028,262.919220 360.442841,263.224823 361.987640,263.535217 
	C361.987640,265.391663 361.987640,266.889862 361.993958,269.301666 
M317.616089,257.001038 
	C309.504578,258.679718 303.999969,265.362793 304.000214,273.532013 
	C304.000366,279.465210 305.793396,281.865845 310.322266,281.996735 
	C316.805176,282.184021 322.247192,278.364624 322.607758,272.674347 
	C320.081787,273.863464 317.945801,275.325012 315.600800,275.846466 
	C313.187866,276.382996 310.040558,276.859619 310.082855,272.738953 
	C313.120514,271.809631 316.184509,271.250031 318.894257,269.951294 
	C322.602448,268.174011 324.894104,264.830902 323.761322,260.762970 
	C323.309723,259.141266 320.291046,258.234436 317.616089,257.001038 
M248.410431,276.077148 
	C245.110672,277.635925 243.059952,277.236664 242.973587,272.960938 
	C242.853119,266.997314 244.847000,264.098145 250.100372,262.503296 
	C251.284348,264.539124 252.410187,266.475006 253.561813,268.455231 
	C257.832764,265.629089 258.193787,261.887451 256.108215,259.366638 
	C254.700150,257.664734 250.617737,256.849487 248.252884,257.508453 
	C240.507355,259.666656 235.419556,268.688324 237.150330,276.571777 
	C237.535538,278.326385 239.212219,280.329041 240.837418,281.179199 
	C245.521896,283.629608 253.505341,280.490387 255.387589,275.600647 
	C255.775253,274.593567 254.861389,273.085480 254.441406,271.377167 
	C252.152435,273.355103 250.656967,274.647339 248.410431,276.077148 
z"/>
<path fill="#FFF" opacity="1.000000" stroke="none" 
	d="
M591.000000,207.000000 
	C591.000000,326.254669 591.000000,445.509308 591.000000,565.000000 
	C490.978119,565.000000 390.956024,565.000000 290.463318,564.597656 
	C290.196259,563.071411 290.179352,561.847229 290.637909,560.839417 
	C294.619354,552.088623 298.396881,543.227905 302.789032,534.684631 
	C311.388947,517.956665 322.189362,502.784760 334.628113,488.583740 
	C345.129486,476.594635 357.413696,466.837189 369.798920,457.136475 
	C377.920471,450.775330 386.566498,445.057739 395.176819,439.352509 
	C409.395172,429.931458 423.673737,420.592590 438.122223,411.530548 
	C447.438599,405.687439 457.267517,400.660614 466.573700,394.802368 
	C479.810669,386.469635 492.243042,377.062836 502.984253,365.559204 
	C510.741058,357.251831 519.570435,349.778259 526.322205,340.738373 
	C537.145996,326.246429 546.722412,310.815887 556.653198,295.668732 
	C559.316528,291.606445 561.606018,287.248993 563.627014,282.825928 
	C567.983215,273.292236 572.053589,263.627899 576.515503,253.795258 
	C582.062561,238.944733 587.397522,224.336349 589.171509,208.732620 
	C589.244080,208.094055 590.366638,207.574844 591.000000,207.000000 
z"/>
<path fill="#22207E" opacity="1.000000" stroke="none" 
	d="
M591.000000,206.531342 
	C590.366638,207.574844 589.244080,208.094055 589.171509,208.732620 
	C587.397522,224.336349 582.062561,238.944733 576.212769,253.961426 
	C574.730408,255.305710 573.653198,256.149933 572.946411,257.235382 
	C564.352783,270.431946 553.827393,281.941895 542.159973,292.432159 
	C526.962341,306.096497 510.481201,318.077789 491.257477,325.216675 
	C466.626007,334.363708 441.588684,342.420044 416.693359,350.849182 
	C415.264160,351.333130 413.539001,350.943085 411.951599,350.959778 
	C413.297089,341.316956 414.057861,331.545990 416.135162,322.063507 
	C418.768280,310.043945 422.114105,298.145752 425.828888,286.409302 
	C428.654327,277.482697 431.941193,268.597626 436.072723,260.211365 
	C444.028229,244.063263 452.462677,228.134918 461.187195,212.386169 
	C471.265717,194.193253 482.327698,176.481750 487.442566,156.024048 
	C490.237823,144.843994 491.173950,133.440002 487.932709,122.222084 
	C485.001617,112.077614 479.278442,103.690445 471.279297,96.494583 
	C460.708313,86.985214 448.587860,80.640579 435.311676,76.173607 
	C428.820465,73.989532 422.245361,72.054749 415.403687,69.588043 
	C416.064606,68.299347 416.892792,67.143211 418.016815,66.604706 
	C428.664978,61.503284 439.074432,55.727985 450.104706,51.634476 
	C477.181061,41.586018 503.503693,45.663418 528.912292,57.960167 
	C535.766907,61.277531 542.249695,65.363068 549.118652,69.356049 
	C549.849182,70.018669 550.457581,70.343750 550.865845,70.835175 
	C560.439758,82.360764 568.709351,94.694679 575.184387,108.277603 
	C581.666992,121.876427 586.975403,135.777481 589.115601,150.773743 
	C589.231934,151.588867 590.348877,152.261200 591.000000,153.000000 
	C591.000000,170.687561 591.000000,188.375122 591.000000,206.531342 
z"/>
<path fill="#22207E" opacity="1.000000" stroke="none" 
	d="
M1.000001,174.468658 
	C1.660061,173.113434 2.675915,172.315033 2.921120,171.325653 
	C4.279735,165.843765 5.450854,160.315414 7.221436,154.415405 
	C8.821911,153.011154 9.942377,152.045883 10.943807,150.969803 
	C20.780865,140.399689 29.922598,129.067917 40.569332,119.391029 
	C59.527603,102.159729 81.830200,90.850441 107.311386,86.535469 
	C111.461784,85.832634 115.784256,86.146042 120.027191,85.989731 
	C116.480469,90.352539 112.655724,94.520538 109.437378,99.113441 
	C98.265671,115.056625 96.185158,133.032150 98.813057,151.719498 
	C99.974174,159.976410 101.251045,168.515610 104.411263,176.122391 
	C109.076279,187.351303 115.446571,197.874313 121.132324,208.676010 
	C128.959152,223.545273 137.070663,238.270889 144.596802,253.290268 
	C150.708405,265.486786 156.170074,278.010468 161.835480,290.427582 
	C162.720230,292.366760 163.273438,294.482635 163.777679,296.565765 
	C166.910080,309.506531 169.450027,322.620667 173.248383,335.360748 
	C176.270264,345.496429 175.821854,355.662750 175.705902,366.271423 
	C161.156662,359.452057 146.497543,352.995453 132.785294,344.929199 
	C98.013336,324.474701 66.122002,299.940521 35.322155,273.958679 
	C32.697784,271.744873 29.688385,269.987488 26.857853,268.018066 
	C15.116749,250.438950 6.902349,231.397034 3.112420,210.539368 
	C2.541852,207.399246 2.248774,204.208679 1.413667,201.020721 
	C1.000000,192.312439 1.000000,183.624863 1.000001,174.468658 
z"/>
<path fill="#2669A9" opacity="1.000000" stroke="none" 
	d="
M411.582520,351.001343 
	C413.539001,350.943085 415.264160,351.333130 416.693359,350.849182 
	C441.588684,342.420044 466.626007,334.363708 491.257477,325.216675 
	C510.481201,318.077789 526.962341,306.096497 542.159973,292.432159 
	C553.827393,281.941895 564.352783,270.431946 572.946411,257.235382 
	C573.653198,256.149933 574.730408,255.305710 575.938232,254.183228 
	C572.053589,263.627899 567.983215,273.292236 563.627014,282.825928 
	C561.606018,287.248993 559.316528,291.606445 556.653198,295.668732 
	C546.722412,310.815887 537.145996,326.246429 526.322205,340.738373 
	C519.570435,349.778259 510.741058,357.251831 502.984253,365.559204 
	C492.243042,377.062836 479.810669,386.469635 466.573700,394.802368 
	C457.267517,400.660614 447.438599,405.687439 438.122223,411.530548 
	C423.673737,420.592590 409.395172,429.931458 395.176819,439.352509 
	C386.566498,445.057739 377.920471,450.775330 369.798920,457.136475 
	C357.413696,466.837189 345.129486,476.594635 334.628113,488.583740 
	C322.189362,502.784760 311.388947,517.956665 302.789032,534.684631 
	C298.396881,543.227905 294.619354,552.088623 290.637909,560.839417 
	C290.179352,561.847229 290.196259,563.071411 289.996338,564.597656 
	C285.643097,565.000000 281.286194,565.000000 276.464661,565.000000 
	C275.999207,552.368591 275.612610,539.721863 276.113129,527.110352 
	C276.556244,515.945740 276.825775,504.558136 279.268463,493.742462 
	C282.476379,479.538940 286.529816,465.262878 292.417267,451.993042 
	C300.227386,434.389587 311.005951,418.203033 324.558746,404.346283 
	C333.609161,395.092865 343.033325,385.856232 353.634125,378.566254 
	C364.169128,371.321594 376.276855,366.295380 387.902191,360.729248 
	C395.481110,357.100525 403.430145,354.244873 411.582520,351.001343 
z"/>
<path fill="#2669A9" opacity="1.000000" stroke="none" 
	d="
M548.903198,69.096008 
	C542.249695,65.363068 535.766907,61.277531 528.912292,57.960167 
	C503.503693,45.663418 477.181061,41.586018 450.104706,51.634476 
	C439.074432,55.727985 428.664978,61.503284 418.016815,66.604706 
	C416.892792,67.143211 416.064606,68.299347 415.007324,69.494797 
	C402.098053,79.228378 389.444763,88.870605 376.422485,97.985603 
	C359.429413,109.879974 342.246063,121.511063 324.943695,132.951614 
	C315.493164,139.200424 304.801178,142.789093 294.151459,146.620956 
	C276.351105,153.025650 258.028015,153.648468 239.626434,152.802551 
	C228.169586,152.275909 216.733170,150.164551 206.149307,145.073502 
	C204.701874,144.377258 203.079269,144.045151 201.338287,143.479660 
	C201.338287,142.225876 201.338287,140.834641 201.338287,139.467957 
	C228.122131,136.455185 251.581818,125.517319 272.768311,110.240196 
	C284.434753,101.827759 294.223267,90.779266 304.685425,80.738945 
	C312.480774,73.257927 320.105286,65.590515 327.601227,57.808998 
	C332.361633,52.867249 336.598114,47.422100 341.337585,42.458641 
	C347.608337,35.891537 353.763092,29.132378 360.645935,23.249250 
	C372.264801,13.317980 386.325317,8.108106 400.981415,4.470512 
	C405.346252,3.387184 409.807587,2.692785 414.112366,1.410089 
	C424.354218,1.000000 434.708466,1.000000 445.396484,1.402194 
	C446.076477,2.136311 446.393677,2.719628 446.773224,2.763483 
	C457.052063,3.951178 467.136444,5.916146 476.404724,10.752718 
	C486.676727,16.113094 497.556030,20.669874 506.910797,27.343004 
	C520.762024,37.223660 533.971680,48.168037 544.078491,62.215393 
	C545.714355,64.489052 547.296326,66.801498 548.903198,69.096008 
z"/>
<path fill="#FFF" opacity="1.000000" stroke="none" 
	d="
M549.118652,69.356049 
	C547.296326,66.801498 545.714355,64.489052 544.078491,62.215393 
	C533.971680,48.168037 520.762024,37.223660 506.910797,27.343004 
	C497.556030,20.669874 486.676727,16.113094 476.404724,10.752718 
	C467.136444,5.916146 457.052063,3.951178 446.773224,2.763483 
	C446.393677,2.719628 446.076477,2.136311 445.865112,1.402194 
	C494.262054,1.000000 542.524109,1.000000 591.000000,1.000000 
	C591.000000,51.354027 591.000000,101.708351 591.000000,152.531342 
	C590.348877,152.261200 589.231934,151.588867 589.115601,150.773743 
	C586.975403,135.777481 581.666992,121.876427 575.184387,108.277603 
	C568.709351,94.694679 560.439758,82.360764 550.865845,70.835175 
	C550.457581,70.343750 549.849182,70.018669 549.118652,69.356049 
z"/>
<path fill="#2669A9" opacity="1.000000" stroke="none" 
	d="
M26.912643,268.377930 
	C29.688385,269.987488 32.697784,271.744873 35.322155,273.958679 
	C66.122002,299.940521 98.013336,324.474701 132.785294,344.929199 
	C146.497543,352.995453 161.156662,359.452057 175.726685,366.727905 
	C182.998627,369.685974 189.719055,373.363739 196.909637,375.232361 
	C206.648376,377.763214 216.743301,378.573761 226.607132,374.982727 
	C231.995605,373.020935 235.912582,369.571289 237.931015,364.067352 
	C242.822586,350.728638 247.764313,337.261414 257.074829,326.332855 
	C263.369263,318.944550 270.464111,311.952057 278.245026,306.193207 
	C286.752777,299.896484 296.119476,302.908234 304.268402,311.437622 
	C318.186768,326.005768 324.301086,343.429718 325.037445,363.165344 
	C325.102142,364.899292 325.614349,366.616516 325.918701,368.341522 
	C325.542023,368.583649 325.165314,368.825806 324.788635,369.067932 
	C323.836365,367.702942 322.953644,366.282654 321.919098,364.983154 
	C318.547058,360.747437 315.638702,355.945343 311.584808,352.498688 
	C306.267487,347.977905 300.129700,349.855774 297.001770,356.293488 
	C295.890747,358.580200 295.079956,361.293579 295.100555,363.804199 
	C295.244629,381.362457 292.096802,398.568298 287.675079,415.307526 
	C283.563080,430.873993 275.809509,445.037262 259.579163,451.723938 
	C243.186432,458.477509 226.762421,457.800659 210.975143,449.862274 
	C196.751266,442.709991 182.308334,435.751282 168.973663,427.140564 
	C155.512222,418.447968 142.923874,408.268707 130.648361,397.916260 
	C120.651054,389.485107 111.340271,380.157593 102.353302,370.634674 
	C93.887344,361.663788 86.099197,352.035187 78.281219,342.476471 
	C71.946373,334.731171 65.608551,326.933319 59.983982,318.673950 
	C49.658886,303.512146 39.864212,287.989319 29.828718,272.629852 
	C28.949324,271.283905 27.924629,270.032867 26.912643,268.377930 
z"/>
<path fill="#2669A9" opacity="1.000000" stroke="none" 
	d="
M120.489929,85.993851 
	C115.784256,86.146042 111.461784,85.832634 107.311386,86.535469 
	C81.830200,90.850441 59.527603,102.159729 40.569332,119.391029 
	C29.922598,129.067917 20.780865,140.399689 10.943807,150.969803 
	C9.942377,152.045883 8.821911,153.011154 7.416401,154.093719 
	C9.958039,146.263504 12.828357,138.363144 15.728437,130.473709 
	C16.688204,127.862755 17.450439,125.130058 18.773432,122.710236 
	C24.545568,112.152672 29.979370,101.359360 36.496029,91.271820 
	C45.699814,77.024696 56.781864,64.156860 69.125900,52.514683 
	C79.341011,42.880379 91.166946,35.750210 104.196930,30.210363 
	C121.895607,22.685566 140.340240,22.443434 158.876633,23.184414 
	C168.164673,23.555696 177.592239,24.908213 186.575577,27.267904 
	C197.179901,30.053383 207.328690,34.871796 215.090836,42.823387 
	C223.606400,51.546757 231.207001,61.167076 239.148163,70.446312 
	C246.884140,79.485764 255.414734,87.399849 266.902924,91.548592 
	C268.677582,92.189484 270.051270,93.940712 271.610413,95.178452 
	C271.454224,95.966904 271.298035,96.755363 271.141876,97.543823 
	C259.520203,100.008659 247.973679,102.979645 236.244644,104.721542 
	C230.510971,105.573059 224.354553,104.625931 218.534729,103.637497 
	C205.206238,101.373802 191.956055,98.639183 178.694855,95.991760 
	C167.191406,93.695244 155.757004,91.030014 144.214737,88.958748 
	C136.531052,87.579903 128.711426,86.958427 120.489929,85.993851 
z"/>
<path fill="#F46711" opacity="1.000000" stroke="none" 
	d="
M260.994080,231.547058 
	C260.998566,218.632217 260.998566,206.175934 260.998566,193.543015 
	C258.944427,192.821320 257.013336,192.142853 255.082245,191.464386 
	C254.895920,191.014771 254.709610,190.565155 254.523285,190.115540 
	C255.850708,189.413528 257.187775,188.093292 258.503937,188.113815 
	C265.078674,188.216339 271.657593,189.072510 278.217072,188.914856 
	C290.577393,188.617752 296.609406,198.082016 297.816040,207.301102 
	C298.484344,212.407333 297.785187,217.830551 296.893616,222.970581 
	C295.555725,230.683533 287.578674,237.368118 279.619629,237.971924 
	C271.594666,238.580734 263.552399,238.961182 255.517715,239.441681 
	C255.183670,238.935928 254.849609,238.430176 254.515564,237.924423 
	C255.414856,236.948090 256.249359,235.900055 257.230072,235.013824 
	C258.418701,233.939667 259.730865,233.002197 260.994080,231.547058 
M268.997009,213.499939 
	C268.997009,219.767303 268.997009,226.034668 268.997009,232.218567 
	C280.301422,234.552582 287.840698,229.125671 289.645905,216.170349 
	C290.321045,211.325317 288.985901,205.532135 286.734802,201.102524 
	C283.279358,194.303040 275.979553,194.540741 268.997009,194.773132 
	C268.997009,200.545776 268.997009,206.523346 268.997009,213.499939 
z"/>
<path fill="#F56711" opacity="1.000000" stroke="none" 
	d="
M389.384460,237.883591 
	C382.440674,240.397964 380.726685,239.646545 376.835571,233.007614 
	C374.847748,234.858795 373.068634,237.334442 370.654785,238.569061 
	C367.147583,240.362885 363.101074,237.353287 363.038513,233.203995 
	C362.920624,225.387650 363.004486,217.568253 363.004486,209.423660 
	C361.443970,209.173904 360.051788,208.951096 358.039734,208.629089 
	C358.218231,207.159378 358.132812,204.466568 358.622498,204.357574 
	C363.380524,203.298553 364.197632,199.214981 365.743256,195.708298 
	C366.390839,194.238998 366.742554,192.639328 367.228821,191.098953 
	C368.089233,191.787048 368.949646,192.475143 369.810059,193.163223 
	C369.810059,196.554962 369.810059,199.946686 369.810059,203.658875 
	C371.987854,203.874771 373.726440,204.047134 375.718475,204.244629 
	C375.718475,205.726135 375.718475,207.124435 375.718475,208.780396 
	C374.042877,208.903458 372.424225,209.022354 370.392639,209.171555 
	C370.392639,216.639999 370.392639,224.150848 370.392639,232.331757 
	C373.058777,230.095795 375.820770,229.525330 377.840698,226.171844 
	C380.259888,222.155624 384.974609,219.347061 389.087708,216.604141 
	C390.987946,215.336914 394.115021,215.063873 392.738159,212.134430 
	C392.016327,210.598648 389.256805,209.970276 387.350098,209.075836 
	C386.850952,208.841705 386.099976,209.144470 385.422821,209.204376 
	C385.072723,211.281113 385.080048,213.346024 384.298553,215.048920 
	C383.859772,216.005066 382.052704,216.944244 380.979553,216.825897 
	C379.913940,216.708389 378.470490,215.433548 378.105438,214.356796 
	C376.680023,210.152832 379.132690,206.260849 382.106201,204.898453 
	C385.610321,203.292938 390.320831,203.303284 394.276581,203.975876 
	C398.554901,204.703339 399.663544,209.046646 399.881622,212.828506 
	C400.226105,218.802231 399.973297,224.810364 399.973297,230.461502 
	C401.392273,230.625549 402.657654,230.771835 403.923035,230.918121 
	C402.687653,233.260437 401.971436,236.213593 400.098328,237.805603 
	C397.092651,240.360275 394.293732,239.040817 392.557831,235.195297 
	C391.572754,236.093536 390.659973,236.925842 389.384460,237.883591 
M391.006500,230.439743 
	C391.893829,227.274887 392.781158,224.110046 393.985321,219.815170 
	C390.633514,221.585999 388.350586,222.158249 387.101990,223.616257 
	C385.625214,225.340668 383.860992,228.155350 384.345490,229.911423 
	C385.082214,232.581833 388.002869,232.345001 391.006500,230.439743 
z"/>
<path fill="#F36610" opacity="1.000000" stroke="none" 
	d="
M166.999023,238.792587 
	C164.856537,238.792587 162.714035,238.792587 158.949402,238.792587 
	C160.498444,237.049713 161.463699,236.066650 162.308487,234.989105 
	C163.582993,233.363495 165.785339,231.701584 165.835114,230.003571 
	C166.156738,219.031311 166.266830,208.033279 165.781250,197.073135 
	C165.681900,194.830719 162.761978,192.713272 160.513306,189.693634 
	C160.771133,189.544144 162.051483,188.156967 163.313889,188.173111 
	C172.397598,188.289215 181.476990,188.874191 190.559204,188.906677 
	C194.032257,188.919113 194.681473,190.771988 194.990723,193.380188 
	C195.712875,199.470779 195.117050,200.914886 191.609406,201.818054 
	C190.933258,199.395660 190.252075,196.955170 189.624390,194.706390 
	C184.336731,194.706390 179.656860,194.706390 174.489746,194.706390 
	C174.489746,199.486084 174.489746,204.356705 174.489746,209.831451 
	C177.586060,209.831451 181.364151,210.746170 184.274948,209.550140 
	C186.727463,208.542374 188.172256,205.082077 190.820618,201.756088 
	C190.820618,209.709808 190.820618,216.156784 190.820618,223.014648 
	C189.760681,222.729538 188.221237,222.534882 188.211349,222.280685 
	C187.962250,215.880600 183.733521,215.578278 178.920349,215.997665 
	C177.471832,216.123886 176.003052,216.017181 174.009338,216.017181 
	C174.009338,220.810959 173.780960,225.272568 174.160736,229.681793 
	C174.263000,230.868835 176.186783,232.798904 177.320068,232.832169 
	C181.047928,232.941544 184.927673,232.804977 188.482513,231.810242 
	C190.274704,231.308746 191.480240,228.742874 192.973694,227.131485 
	C194.191833,225.817169 195.443649,224.534058 196.680542,223.237122 
	C197.141693,223.623245 197.602844,224.009354 198.063995,224.395477 
	C196.670258,228.907547 195.276505,233.419617 193.019562,237.974091 
	C183.770584,238.275177 175.384811,238.533875 166.999023,238.792587 
z"/>
<path fill="#F46711" opacity="1.000000" stroke="none" 
	d="
M233.803741,221.251709 
	C236.936630,227.246338 239.802475,232.947495 242.755676,238.822418 
	C236.880203,238.822418 231.091461,238.822418 224.441711,238.822418 
	C226.615585,234.376236 231.601715,231.056686 226.533630,225.487000 
	C221.693253,220.167542 216.425476,224.997284 211.368347,222.444626 
	C210.028244,226.321472 208.881790,229.638077 208.003799,232.178055 
	C209.800980,234.512573 211.129669,236.238541 213.076660,238.767685 
	C206.742401,238.767685 201.984055,238.767685 195.978638,238.767685 
	C197.590576,236.718674 198.553009,235.390488 199.626419,234.159012 
	C200.800949,232.811493 202.645020,231.763412 203.216202,230.221420 
	C206.354675,221.748642 209.048096,213.111023 212.185226,204.637695 
	C214.215485,199.154007 216.743713,193.854691 219.492737,187.436188 
	C220.642410,188.698273 222.323349,189.782120 222.886032,191.284729 
	C226.571136,201.125397 230.014435,211.056610 233.803741,221.251709 
M218.091644,203.284531 
	C216.709244,207.807343 215.326859,212.330139 213.854340,217.147827 
	C217.131104,217.147827 220.385727,217.147827 223.846954,217.147827 
	C223.080856,214.809814 222.362625,212.398972 221.498581,210.041580 
	C220.606567,207.607895 219.572708,205.226196 218.091644,203.284531 
z"/>
<path fill="#F36611" opacity="1.000000" stroke="none" 
	d="
M297.933289,246.850281 
	C300.672089,246.243057 303.410919,245.635834 306.575317,245.459198 
	C307.015625,246.633423 307.030396,247.377075 307.045166,248.120728 
	C305.064758,255.327896 303.002563,262.514343 301.169800,269.758850 
	C300.781036,271.295624 300.733154,273.282227 301.388245,274.649475 
	C303.162720,278.352753 300.145447,279.759430 298.144196,280.667084 
	C297.032623,281.171265 294.781464,279.162750 292.728607,278.127747 
	C287.175751,283.372009 284.011017,285.236603 279.909760,276.624084 
	C277.949310,278.290405 275.953278,280.487579 273.486633,281.800751 
	C272.669586,282.235748 270.641144,280.395447 268.995972,279.502869 
	C267.292633,281.953217 263.909271,282.925720 260.471985,281.602600 
	C257.414551,280.425720 256.737671,277.409882 256.942871,274.096283 
	C257.348572,267.543671 263.789154,258.835693 270.162354,257.559448 
	C273.124756,256.966217 276.357513,257.723145 280.844330,257.932159 
	C280.304901,259.976379 279.634033,262.437561 279.008667,264.910248 
	C278.300385,267.710876 277.632965,270.521820 276.578735,274.839722 
	C278.519379,273.473083 279.382996,272.864899 280.754700,272.372559 
	C281.815613,273.607605 282.368500,274.726746 282.921387,275.845856 
	C283.403473,275.494568 283.885590,275.143280 284.367706,274.791992 
	C283.300598,273.528412 282.233521,272.264862 281.166443,271.001282 
	C283.419830,261.109253 290.650970,255.556656 298.236877,257.811707 
	C298.944183,256.237946 299.561066,254.628799 300.370667,253.123260 
	C301.401001,251.207306 301.336487,249.999557 298.388794,249.530075 
	C297.976654,248.346039 297.954956,247.598160 297.933289,246.850281 
M296.761078,262.333008 
	C290.211151,261.712646 285.381226,267.956665 286.551727,276.546814 
	C288.254669,275.720215 289.912628,275.246948 291.128571,274.239960 
	C292.597595,273.023346 293.692139,271.354523 295.312622,270.367035 
	C300.031097,272.204559 298.334412,267.786041 299.358368,266.120514 
	C300.867493,263.665863 299.436707,262.965607 296.761078,262.333008 
M266.784180,275.676788 
	C269.176025,272.369965 271.673492,269.130341 273.861328,265.693634 
	C274.250153,265.082855 273.654938,263.289093 272.958374,262.709534 
	C272.334991,262.190826 270.839691,262.303101 269.911621,262.639893 
	C265.989502,264.063293 262.530701,269.408356 263.130402,273.489746 
	C263.268463,274.429443 265.009369,275.133636 266.784180,275.676788 
M303.631744,250.668930 
	C303.576447,250.689774 303.521118,250.710617 303.631744,250.668930 
M302.475464,256.502808 
	C302.475464,256.502808 302.513153,256.490112 302.475464,256.502808 
M301.475525,260.502747 
	C301.475525,260.502747 301.513214,260.490112 301.475525,260.502747 
z"/>
<path fill="#F46711" opacity="1.000000" stroke="none" 
	d="
M331.003113,213.536285 
	C330.134705,212.059143 329.267242,211.024200 328.399780,209.989258 
	C326.800720,205.864639 329.515472,203.747253 337.627533,203.085022 
	C337.827362,204.769806 338.029144,206.470703 338.239746,208.246155 
	C341.078064,204.425186 344.730652,201.674515 349.365601,203.329529 
	C353.481140,204.799042 355.114716,208.702255 355.019501,213.187393 
	C354.920654,217.844086 354.824585,222.513245 355.058624,227.160263 
	C355.213898,230.242569 353.205627,234.439087 358.553467,235.558395 
	C358.869934,235.624619 358.795258,237.559555 358.924194,238.839203 
	C348.611481,238.839203 338.662933,238.839203 328.302704,238.839203 
	C328.209564,238.227097 327.825653,237.415436 328.075043,237.091766 
	C333.582947,229.943832 329.964081,221.665436 331.003113,213.536285 
M347.608643,233.836945 
	C347.736908,227.241272 348.130219,220.635483 347.879272,214.054260 
	C347.757538,210.861389 346.016876,209.160187 342.160522,210.827835 
	C338.921997,212.228317 337.611420,213.978180 337.934937,217.480957 
	C338.237915,220.761322 337.999725,224.091660 337.999908,227.400009 
	C338.000366,235.047592 339.001709,235.837448 347.608643,233.836945 
z"/>
<path fill="#F36710" opacity="1.000000" stroke="none" 
	d="
M326.928772,216.897766 
	C325.287384,217.872269 323.703247,218.808609 322.077393,218.887680 
	C317.608978,219.104996 313.123047,218.962692 308.691772,218.962692 
	C307.738983,225.192108 310.609802,229.882324 315.796051,230.923721 
	C319.290314,231.625366 322.274139,229.060318 324.155151,222.586426 
	C325.468292,224.749664 326.954254,226.055679 326.860718,227.236588 
	C326.399414,233.059937 320.281799,238.937439 315.067780,239.001297 
	C307.496552,239.094025 303.457947,235.240784 301.907318,227.646408 
	C300.501404,220.760666 301.010162,214.426331 304.881714,208.508682 
	C310.251221,200.301361 320.489471,200.827530 324.803436,209.605072 
	C325.849365,211.733261 326.262726,214.172348 326.928772,216.897766 
M309.763245,209.810318 
	C309.179962,210.889313 308.596710,211.968307 307.906738,213.244659 
	C311.391541,213.244659 314.529266,213.244659 317.671448,213.244659 
	C316.963989,208.656418 316.963989,208.656418 309.763245,209.810318 
z"/>
<path fill="#F46711" opacity="1.000000" stroke="none" 
	d="
M337.927979,267.153687 
	C337.981598,266.105408 337.981598,265.443298 337.981598,263.564087 
	C333.775604,268.123779 330.719971,272.039062 329.912048,277.539276 
	C329.525055,280.174011 328.936798,283.430298 323.442078,281.060638 
	C324.361755,277.601471 325.722595,273.901825 326.219391,270.089600 
	C326.523895,267.752533 331.214844,264.700104 325.574066,262.602295 
	C324.937897,262.365723 325.115265,259.941681 324.737854,257.280121 
	C328.410797,260.482788 333.140686,253.241318 335.481750,260.113434 
	C340.109436,255.562256 342.103302,255.820145 345.343048,261.812805 
	C346.857178,260.538605 348.217133,259.117706 349.829865,258.095703 
	C352.999359,256.087097 355.785278,257.447144 355.917847,261.183472 
	C355.997406,263.425049 355.250031,265.684906 355.023743,267.951447 
	C354.791931,270.272919 352.944183,272.321777 355.690918,274.975616 
	C357.782135,276.996124 352.264282,281.875793 346.445221,281.858093 
	C347.560577,276.034668 348.636169,270.418793 349.842651,264.119446 
	C344.952209,267.738647 342.287323,272.233368 341.019653,277.618652 
	C340.295685,280.694153 338.928406,282.576874 334.326965,281.581360 
	C335.531128,276.815002 336.702759,272.177460 337.927979,267.153687 
z"/>
<path fill="#F36711" opacity="1.000000" stroke="none" 
	d="
M222.276031,258.327698 
	C225.548599,253.571991 228.616180,249.124481 231.683777,244.676971 
	C232.066910,244.869766 232.450058,245.062546 232.833191,245.255325 
	C232.102081,255.607132 231.370972,265.958923 230.695221,275.526733 
	C232.331757,277.136353 233.663010,278.445740 234.994278,279.755096 
	C233.243240,280.507202 231.543655,281.701660 229.729660,281.912628 
	C226.644196,282.271484 223.486755,282.011414 219.348282,282.011414 
	C221.763382,278.179291 223.694717,275.114777 225.874802,271.655579 
	C216.193161,270.159485 216.193161,270.159485 215.808167,281.983368 
	C214.040939,281.983368 212.254517,281.983337 210.468094,281.983337 
	C208.826538,281.983337 207.184998,281.983368 205.279388,281.983368 
	C205.279388,280.307770 205.279388,278.908936 205.279388,277.510101 
	C205.617874,277.793732 205.956360,278.077362 206.294846,278.360992 
	C208.732697,275.848267 211.406097,273.519897 213.551941,270.778534 
	C216.595383,266.890503 219.250183,262.698212 222.276031,258.327698 
z"/>
<path fill="#F46711" opacity="1.000000" stroke="none" 
	d="
M408.996643,195.540787 
	C408.225250,194.651520 407.482513,194.149414 406.680878,193.772583 
	C405.895264,193.403259 404.620331,193.374451 404.339996,192.809326 
	C403.995300,192.114471 404.155792,190.429398 404.620972,190.190445 
	C408.068329,188.419418 411.645752,186.901520 416.000397,184.934586 
	C416.000397,200.635757 415.984344,214.896988 416.014587,229.158112 
	C416.020294,231.845535 415.117310,235.117218 419.722198,235.221176 
	C420.228180,235.232590 420.687469,237.312820 421.239807,238.599899 
	C408.041779,239.892212 405.911377,239.542297 403.861481,235.531433 
	C409.208710,235.690125 409.132446,232.270264 409.065186,228.367477 
	C408.879181,217.575424 408.999969,206.778061 408.996643,195.540787 
z"/>
<path fill="#F46711" opacity="1.000000" stroke="none" 
	d="
M361.990784,268.844849 
	C361.987640,266.889862 361.987640,265.391663 361.987640,263.535217 
	C360.442841,263.224823 358.922028,262.919220 357.245483,262.582336 
	C357.245483,261.122162 357.245483,259.718170 357.245483,258.384521 
	C359.404724,257.998383 361.438385,257.093231 363.172607,257.491608 
	C364.624054,257.825012 366.513763,259.501801 366.832947,260.898285 
	C367.758881,264.949860 367.992401,269.159698 368.573486,273.930481 
	C370.867584,270.593292 372.896515,267.641846 374.925446,264.690369 
	C374.447876,264.699615 373.970306,264.708862 373.492767,264.718109 
	C373.157166,262.824982 372.394653,260.864990 372.675934,259.068451 
	C372.806000,258.237762 374.936829,257.384674 376.234894,257.248047 
	C376.711945,257.197845 378.097809,259.360657 377.880676,260.210327 
	C376.728455,264.719727 376.072906,269.712341 373.597870,273.445343 
	C369.715790,279.300537 364.638306,284.395477 359.815704,289.578522 
	C357.938873,291.595673 354.980011,293.769623 352.979004,290.120911 
	C352.200928,288.702026 353.943542,285.900818 354.734558,283.010986 
	C356.776276,284.476471 357.668152,285.116608 358.525513,285.731995 
	C365.106873,281.396393 363.288574,275.294586 361.990784,268.844849 
z"/>
<path fill="#F46710" opacity="1.000000" stroke="none" 
	d="
M318.028534,257.001587 
	C320.291046,258.234436 323.309723,259.141266 323.761322,260.762970 
	C324.894104,264.830902 322.602448,268.174011 318.894257,269.951294 
	C316.184509,271.250031 313.120514,271.809631 310.082855,272.738953 
	C310.040558,276.859619 313.187866,276.382996 315.600800,275.846466 
	C317.945801,275.325012 320.081787,273.863464 322.607758,272.674347 
	C322.247192,278.364624 316.805176,282.184021 310.322266,281.996735 
	C305.793396,281.865845 304.000366,279.465210 304.000214,273.532013 
	C303.999969,265.362793 309.504578,258.679718 318.028534,257.001587 
M312.489197,265.041779 
	C312.003815,265.853424 311.518433,266.665070 311.033051,267.476715 
	C311.466187,267.893219 311.899353,268.309723 312.332489,268.726227 
	C314.575867,266.835693 316.819244,264.945129 319.062653,263.054596 
	C318.665894,262.517853 318.269135,261.981110 317.872375,261.444366 
	C316.255890,262.466400 314.639435,263.488403 312.489197,265.041779 
z"/>
<path fill="#F36710" opacity="1.000000" stroke="none" 
	d="
M248.785965,276.008362 
	C250.656967,274.647339 252.152435,273.355103 254.441406,271.377167 
	C254.861389,273.085480 255.775253,274.593567 255.387589,275.600647 
	C253.505341,280.490387 245.521896,283.629608 240.837418,281.179199 
	C239.212219,280.329041 237.535538,278.326385 237.150330,276.571777 
	C235.419556,268.688324 240.507355,259.666656 248.252884,257.508453 
	C250.617737,256.849487 254.700150,257.664734 256.108215,259.366638 
	C258.193787,261.887451 257.832764,265.629089 253.561813,268.455231 
	C252.410187,266.475006 251.284348,264.539124 250.100372,262.503296 
	C244.847000,264.098145 242.853119,266.997314 242.973587,272.960938 
	C243.059952,277.236664 245.110672,277.635925 248.785965,276.008362 
z"/>
<path fill="#FF6D25" opacity="1.000000" stroke="none" 
	d="
M167.461426,238.880707 
	C175.384811,238.533875 183.770584,238.275177 192.631912,238.024231 
	C189.801117,238.354660 186.500198,238.859558 183.187210,238.957733 
	C178.103775,239.108383 173.012054,238.979218 167.461426,238.880707 
z"/>
<path fill="#F56710" opacity="1.000000" stroke="none" 
	d="
M281.088013,271.234772 
	C282.233521,272.264862 283.300598,273.528412 284.367706,274.791992 
	C283.885590,275.143280 283.403473,275.494568 282.921387,275.845856 
	C282.368500,274.726746 281.815613,273.607605 281.074585,272.216858 
	C280.886475,271.945221 281.009552,271.468262 281.088013,271.234772 
z"/>
<path fill="#F56710" opacity="1.000000" stroke="none" 
	d="
M297.630402,247.012787 
	C297.954956,247.598160 297.976654,248.346039 297.998688,249.467529 
	C297.775208,248.952515 297.551361,248.063889 297.630402,247.012787 
z"/>
<path fill="#F56710" opacity="1.000000" stroke="none" 
	d="
M307.350525,247.965729 
	C307.030396,247.377075 307.015625,246.633423 307.000793,245.518906 
	C307.219086,246.035599 307.437469,246.923172 307.350525,247.965729 
z"/>
<path fill="#FFF" opacity="1.000000" stroke="none" 
	d="
M268.997009,213.000427 
	C268.997009,206.523346 268.997009,200.545776 268.997009,194.773132 
	C275.979553,194.540741 283.279358,194.303040 286.734802,201.102524 
	C288.985901,205.532135 290.321045,211.325317 289.645905,216.170349 
	C287.840698,229.125671 280.301422,234.552582 268.997009,232.218567 
	C268.997009,226.034668 268.997009,219.767303 268.997009,213.000427 
z"/>
<path fill="#FFF" opacity="1.000000" stroke="none" 
	d="
M390.680969,230.679718 
	C388.002869,232.345001 385.082214,232.581833 384.345490,229.911423 
	C383.860992,228.155350 385.625214,225.340668 387.101990,223.616257 
	C388.350586,222.158249 390.633514,221.585999 393.985321,219.815170 
	C392.781158,224.110046 391.893829,227.274887 390.680969,230.679718 
z"/>
<path fill="#FFF" opacity="1.000000" stroke="none" 
	d="
M218.346283,203.053146 
	C219.572708,205.226196 220.606567,207.607895 221.498581,210.041580 
	C222.362625,212.398972 223.080856,214.809814 223.846954,217.147827 
	C220.385727,217.147827 217.131104,217.147827 213.854340,217.147827 
	C215.326859,212.330139 216.709244,207.807343 218.346283,203.053146 
z"/>
<path fill="#FFF" opacity="1.000000" stroke="none" 
	d="
M266.398438,275.811493 
	C265.009369,275.133636 263.268463,274.429443 263.130402,273.489746 
	C262.530701,269.408356 265.989502,264.063293 269.911621,262.639893 
	C270.839691,262.303101 272.334991,262.190826 272.958374,262.709534 
	C273.654938,263.289093 274.250153,265.082855 273.861328,265.693634 
	C271.673492,269.130341 269.176025,272.369965 266.398438,275.811493 
z"/>
<path fill="#FFF" opacity="1.000000" stroke="none" 
	d="
M294.948761,269.881409 
	C293.692139,271.354523 292.597595,273.023346 291.128571,274.239960 
	C289.912628,275.246948 288.254669,275.720215 286.551727,276.546814 
	C285.381226,267.956665 290.211151,261.712646 296.887177,263.033081 
	C296.325104,265.782562 295.636932,267.832001 294.948761,269.881409 
z"/>
<path fill="#F56710" opacity="1.000000" stroke="none" 
	d="
M295.130676,270.124207 
	C295.636932,267.832001 296.325104,265.782562 297.090149,263.367065 
	C299.436707,262.965607 300.867493,263.665863 299.358368,266.120514 
	C298.334412,267.786041 300.031097,272.204559 295.130676,270.124207 
z"/>
<path fill="#F56710" opacity="1.000000" stroke="none" 
	d="
M303.548767,250.700195 
	C303.521118,250.710617 303.576447,250.689774 303.548767,250.700195 
z"/>
<path fill="#F56710" opacity="1.000000" stroke="none" 
	d="
M302.494324,256.496460 
	C302.513153,256.490112 302.475464,256.502808 302.494324,256.496460 
z"/>
<path fill="#F56710" opacity="1.000000" stroke="none" 
	d="
M301.494385,260.496429 
	C301.513214,260.490112 301.475525,260.502747 301.494385,260.496429 
z"/>
<path fill="#FFF" opacity="1.000000" stroke="none" 
	d="
M347.285950,234.153870 
	C339.001709,235.837448 338.000366,235.047592 337.999908,227.400009 
	C337.999725,224.091660 338.237915,220.761322 337.934937,217.480957 
	C337.611420,213.978180 338.921997,212.228317 342.160522,210.827835 
	C346.016876,209.160187 347.757538,210.861389 347.879272,214.054260 
	C348.130219,220.635483 347.736908,227.241272 347.285950,234.153870 
z"/>
<path fill="#FFF" opacity="1.000000" stroke="none" 
	d="
M310.039062,209.524063 
	C316.963989,208.656418 316.963989,208.656418 317.671448,213.244659 
	C314.529266,213.244659 311.391541,213.244659 307.906738,213.244659 
	C308.596710,211.968307 309.179962,210.889313 310.039062,209.524063 
z"/>
<path fill="#FFF" opacity="1.000000" stroke="none" 
	d="
M312.756073,264.776093 
	C314.639435,263.488403 316.255890,262.466400 317.872375,261.444366 
	C318.269135,261.981110 318.665894,262.517853 319.062653,263.054596 
	C316.819244,264.945129 314.575867,266.835693 312.332489,268.726227 
	C311.899353,268.309723 311.466187,267.893219 311.033051,267.476715 
	C311.518433,266.665070 312.003815,265.853424 312.756073,264.776093 
z"/>
</svg>