<svg xmlns="http://www.w3.org/2000/svg" width="196" height="14" viewBox="0 0 196 14" fill="none">
    <path d="M195.365 4.77776C195.269 4.48976 195.077 4.29776 194.789 4.20176C193.445 3.72176 192.005 3.72176 190.661 3.52976C189.893 3.43376 189.221 3.43376 188.453 3.24176C187.973 3.14576 187.397 3.04976 186.821 3.04976C186.341 3.04976 185.861 2.85776 185.381 2.85776C185.285 2.85776 185.093 2.76176 184.997 2.85776C184.325 3.04976 183.749 2.85776 183.173 2.76176C182.597 2.66576 182.117 2.66576 181.637 2.56976C181.061 2.85776 180.581 2.37776 180.101 2.47376C179.525 2.56976 178.853 2.28177 178.277 2.37777C177.605 2.47377 176.933 2.08977 176.261 2.37777C176.165 2.37777 175.877 2.28176 175.685 2.28176C175.301 2.28176 174.821 2.18576 174.437 2.08976C173.861 1.99376 173.189 1.80176 172.613 1.99376C171.941 2.18576 171.365 1.89776 170.789 1.80176L169.829 1.89777C169.733 1.89777 169.541 1.99377 169.445 1.89777C168.677 1.60977 168.005 1.80176 167.237 1.80176C166.949 1.70576 166.565 1.80177 166.277 1.70577C164.837 1.22577 163.397 1.51376 161.957 1.51376C161.189 1.51376 160.421 1.41777 159.653 1.41777C158.405 1.41777 157.157 1.22576 155.909 1.22576C154.853 1.22576 153.797 1.22576 152.645 1.03376C151.973 0.937759 151.301 0.937767 150.629 0.937767C150.437 0.937767 150.245 1.03377 150.053 0.937767C149.093 0.841766 148.133 0.937762 147.077 0.841762C145.253 0.649762 143.333 1.03376 141.509 0.55376C141.317 0.55376 141.125 0.649765 140.933 0.649765C140.165 0.649765 139.493 0.745758 138.725 0.745758C138.341 0.745758 137.861 0.457757 137.381 0.745758C136.901 0.457757 136.421 0.553757 135.845 0.745758C135.557 0.841757 135.269 0.841757 134.981 0.745758C134.213 0.457757 133.541 0.457764 132.773 0.649765C132.389 0.745765 131.909 0.457757 131.429 0.745758C130.757 0.457757 129.893 0.745765 129.125 0.649765C128.357 0.553764 127.589 0.457757 126.821 0.745758C126.149 0.457757 125.285 0.55376 124.517 0.55376C124.229 0.64976 123.941 0.649765 123.653 0.649765C123.461 0.649765 123.173 0.841757 122.981 0.745758C122.597 0.553757 122.117 0.649765 121.637 0.649765C121.253 0.649765 120.773 0.55376 120.293 0.55376C119.525 0.55376 118.853 0.64976 118.085 0.55376C117.413 0.45776 116.741 0.745761 116.069 0.55376C115.397 0.36176 114.629 0.745758 113.957 0.745758C111.653 0.745758 109.445 0.745763 107.237 0.841762C106.661 0.553762 106.085 0.841762 105.509 0.841762C104.933 0.841762 104.357 0.649762 103.781 0.841762C103.493 0.937762 103.109 0.937767 102.725 0.937767C101.477 0.937767 100.133 1.03377 98.8847 0.937767C98.2127 1.22577 97.4447 1.12976 96.6767 1.12976C95.1407 1.12976 93.5087 1.03376 91.8767 1.22576C90.9167 1.32176 90.0527 1.41777 89.0927 1.41777H86.8847C86.1167 1.41777 85.3487 1.32176 84.5807 1.51376C83.8127 1.70576 83.1407 1.41776 82.4687 1.51376C81.6047 1.60976 80.7407 1.51377 79.9727 1.70577C79.2047 1.89777 78.3407 1.51376 77.5727 1.99376H77.2847C76.3247 1.60976 75.3647 1.80176 74.5007 1.80176C73.5407 1.80176 72.5807 1.80176 71.7167 2.08976C71.4287 2.18576 71.2367 2.18576 70.9487 2.08976C70.7567 1.99376 70.4687 1.99376 70.1807 2.08976C69.4127 2.08976 68.6447 1.89776 67.8767 2.28176C67.1087 2.08976 66.3407 2.18576 65.5727 2.28176C64.8047 2.37776 64.1327 2.37777 63.3647 2.37777C62.5967 2.37777 61.8287 2.37776 61.0607 2.56976C60.2927 2.37776 59.6207 2.85776 58.9487 2.47376C58.1807 2.76176 57.5087 2.47377 56.7407 2.66577C55.7807 2.85777 54.8207 2.95376 53.8607 2.85776C53.1887 2.76176 52.6127 2.95376 52.0367 3.04976C51.4607 3.14576 50.9807 3.14577 50.5007 3.14577C49.9247 3.14577 49.3487 2.95377 48.7727 3.14577C47.7167 3.52977 46.5647 3.14576 45.4127 3.52976C44.3567 3.24176 43.3007 3.72176 42.2447 3.72176C41.7647 3.72176 41.1887 3.62576 40.7087 3.81776C40.0367 4.10576 39.2687 4.00976 38.5007 4.00976C38.1167 3.91376 37.6367 3.91377 37.1567 4.10577C36.6767 4.29777 36.1007 4.48976 35.5247 4.29776C35.2367 4.20176 34.9487 4.29777 34.5647 4.39377C33.9887 4.39377 33.4127 4.48976 32.7407 4.48976C32.1647 4.48976 31.5887 4.96976 30.9167 4.68176C30.7247 4.58576 30.5327 4.77776 30.5327 4.96976C30.4367 5.25776 30.3407 5.54576 30.0527 5.06576C29.9567 4.87376 29.6687 4.87377 29.3807 4.87377C28.9967 4.87377 28.7087 5.06576 28.3247 4.96976C28.0367 4.87376 27.6527 5.25776 27.2687 5.06576C27.0767 4.96976 27.0767 5.25777 26.9807 5.35377C26.9807 5.64177 26.8847 5.73776 26.5967 5.54576C25.8287 5.25776 25.1567 5.16177 24.4847 5.83377C24.2927 6.02577 24.2927 5.92976 24.1967 5.73776C24.1967 5.54576 24.2927 5.35377 23.9087 5.35377C23.1407 5.54577 22.3727 5.83377 21.6047 5.83377C20.7407 5.83377 19.9727 6.02576 19.2047 6.12176C17.5727 6.31376 15.9407 6.31376 14.2127 6.69776C13.2527 6.88976 12.1967 6.98576 11.2367 7.27377C10.9487 7.36977 10.6607 7.36976 10.4687 7.36976C10.0847 7.36976 9.60467 7.65777 9.22067 7.56177C8.74067 7.46577 8.35667 7.65776 7.87667 7.84976C7.58867 7.94576 7.30067 7.94577 7.01267 8.04177C5.86067 8.04177 4.80467 8.32977 3.84467 8.80977C3.65267 8.90577 3.36467 8.90577 3.07667 9.00177C2.78867 9.19377 2.59667 9.19376 2.21267 9.09776C1.54067 8.90576 0.868666 8.90576 0.292667 9.38576C0.292667 9.48176 0.196667 9.57776 0.292667 9.67376C0.292667 9.76976 0.388666 9.76976 0.484666 9.86576C0.676667 9.86576 0.772666 9.86577 0.964667 9.76977C1.15667 9.67377 1.34867 9.57776 1.54067 9.67376C2.50067 10.1538 3.46067 9.96177 4.42067 9.76977C4.90067 9.67377 5.28467 9.86577 5.66867 9.48177C5.95667 9.19377 6.34067 9.19376 6.62867 9.19376C7.10867 9.19376 7.49267 9.09776 7.87667 9.09776C8.64467 9.09776 9.22067 8.80976 9.79667 8.23376C9.98867 7.94576 10.3727 7.94576 10.6607 8.13776C11.2367 8.71376 11.8127 8.61776 12.5807 8.61776C13.1567 8.61776 13.7327 8.42576 14.4047 8.42576C14.5967 8.42576 14.7887 8.52176 14.9807 8.32976C15.4607 7.84976 16.3247 8.04176 16.9007 7.75376C17.0927 7.65776 17.2847 7.75376 17.4767 7.75376C17.7647 7.84976 18.0527 7.84976 18.2447 7.84976C19.6847 7.84976 21.1247 7.56176 22.5647 7.36976L22.8527 7.17776C23.0447 6.79376 23.2367 6.98576 23.6207 6.98576C24.0047 6.98576 24.5807 7.08176 24.9647 6.98576C25.7327 6.79376 26.5007 6.50576 27.3647 6.69776C28.0367 6.31376 28.7087 6.50576 29.3807 6.40976H32.0687C32.3567 6.40976 32.7407 6.50576 33.0287 6.12176C33.0287 5.92976 33.1247 5.92976 33.2207 6.02576C33.5087 6.60176 34.0847 6.40977 34.4687 6.31377C35.2367 6.12177 35.9087 6.02576 36.6767 5.64176C36.8687 5.54576 36.9647 5.73777 37.0607 5.83377C37.2527 6.02577 37.3487 6.02576 37.4447 6.02576C38.2127 5.73776 38.9807 5.83376 39.7487 5.73776C40.6127 5.64176 41.3807 5.73776 42.2447 5.73776C42.6287 5.73776 43.0127 5.83376 43.3007 5.73776C44.2607 5.44976 45.1247 5.44976 46.0847 5.44976C46.8527 5.44976 47.4287 5.54576 48.1967 5.16176C48.3887 5.06576 48.6767 5.16176 48.8687 5.16176C50.5967 5.16176 52.3247 5.25777 53.9567 4.87377H54.4367C55.1087 4.87377 55.6847 4.87376 56.3567 4.77776C57.0287 4.68176 57.6047 4.87377 58.2767 4.87377C58.6607 4.77777 59.0447 4.87376 59.3327 4.68176C59.8127 4.39376 60.1967 4.87376 60.5807 4.68176C61.2527 4.29776 61.8287 4.48976 62.5007 4.48976C63.3647 4.48976 64.2287 4.58576 64.9967 4.48976C66.1487 4.29776 67.3007 4.20176 68.3567 4.20176C68.6447 4.20176 68.9327 4.29776 69.1247 4.20176C69.6047 4.00976 69.9887 4.00977 70.3727 4.10577C70.7567 4.20177 71.1407 3.91377 71.6207 4.10577C72.0047 4.29777 72.4847 4.00977 72.9647 4.10577C73.3487 4.20177 73.7327 4.29777 74.2127 4.10577C74.5967 3.91377 75.0767 4.10576 75.5567 4.00976C76.0367 3.91376 76.5167 3.81776 77.0927 3.81776C77.6687 3.81776 78.1487 3.91377 78.7247 3.91377C79.3007 3.91377 79.7807 3.72176 80.2607 3.81776C80.8367 3.91376 81.4127 3.91377 81.9887 3.91377C82.8527 3.91377 83.8127 4.10576 84.5807 3.72176C84.7727 3.62576 84.9647 3.72176 85.1567 3.72176C86.0207 3.91376 86.7887 4.00976 87.6527 3.72176C88.3247 3.52976 88.9967 3.24177 89.6687 3.62577C91.3007 3.62577 93.0287 3.52976 94.7567 3.52976C95.3327 3.33776 96.0047 3.43376 96.5807 3.43376C96.9647 3.43376 97.2527 3.62576 97.6367 3.33776C98.5967 3.52976 99.4607 3.24176 100.421 3.24176C101.669 3.24176 103.013 3.43377 104.357 3.14577H104.645C105.317 3.43377 105.893 3.24177 106.565 3.14577C106.757 3.04977 106.853 3.14577 107.045 3.14577C108.101 3.43377 109.157 3.52977 110.309 3.14577C110.597 3.04977 110.885 3.04977 111.173 3.14577C111.653 3.33777 112.133 3.33777 112.613 3.14577C112.997 2.95377 113.381 2.95377 113.765 3.14577C113.957 3.24177 114.245 3.24176 114.437 3.24176H117.605C117.989 3.33776 118.469 3.33776 118.853 3.24176C119.813 3.04976 120.677 3.24176 121.637 3.24176C122.021 3.24176 122.501 3.33776 122.981 3.04976C123.461 2.76176 123.845 2.66577 124.325 3.14577C124.517 3.24177 124.805 3.24176 125.093 3.24176C125.957 3.24176 126.821 3.33777 127.685 3.14577C128.453 3.43377 129.317 3.24176 130.085 3.24176C130.853 3.24176 131.621 3.33776 132.389 3.24176C133.157 3.14576 133.925 3.24176 134.693 3.24176C136.325 3.24176 137.957 3.14576 139.493 3.43376C139.589 3.52976 139.781 3.52976 139.877 3.43376C140.453 3.24176 141.029 3.43376 141.701 3.52976C142.853 3.72176 144.101 3.62576 145.349 3.24176C145.637 3.14576 145.925 3.14576 146.213 3.24176C147.077 3.52976 147.941 3.62577 148.805 3.62577C149.765 3.62577 150.629 3.72176 151.493 3.72176C152.069 3.72176 152.645 3.81776 153.125 3.81776C153.797 3.81776 154.373 3.91376 155.045 3.72176C155.621 3.52976 156.197 3.91377 156.869 3.91377H157.445C158.405 3.72177 159.173 4.00976 160.037 4.00976C160.133 4.00976 160.133 4.10577 160.229 4.10577V4.20176C160.325 4.39376 160.229 4.48976 160.133 4.48976C159.941 4.48976 159.749 4.58576 159.653 4.48976C159.269 4.10576 158.597 4.29776 158.021 4.48976C157.733 4.58576 157.445 4.58577 157.157 4.58577H153.221C152.837 4.58577 152.453 4.68176 152.165 4.77776C151.685 4.96976 151.397 4.39377 150.917 4.58577C150.629 4.68177 150.341 4.58576 150.053 4.68176C149.765 4.77776 149.573 4.77776 149.285 4.77776C148.901 4.77776 148.613 4.87376 148.229 4.68176C147.845 4.48976 147.461 4.87376 147.077 4.68176H143.813C143.429 4.68176 143.141 4.87376 142.853 4.77776C142.085 4.48976 141.317 5.06576 140.645 4.68176C139.781 4.96976 139.013 4.87377 138.149 4.87377H135.845C135.077 4.87377 134.309 4.96976 133.541 4.96976C132.677 4.96976 131.909 5.25776 131.045 4.96976C130.949 4.87376 130.757 4.96976 130.565 5.06576C130.181 5.06576 129.701 5.16176 129.221 5.16176C127.493 5.16176 125.669 5.16177 123.941 5.35377C122.885 5.44977 121.733 5.44976 120.677 5.44976C119.813 5.44976 118.853 5.64176 117.989 6.12176C117.893 6.21776 117.701 6.21777 117.605 6.31377C117.413 5.73777 116.933 6.12176 116.645 6.02576C115.973 5.83376 115.301 5.83376 114.533 6.02576C114.341 6.02576 114.149 6.12176 113.957 6.02576C113.573 5.83376 113.189 6.02576 112.901 6.02576C112.133 6.02576 111.365 6.21776 110.597 6.12176C110.021 6.02576 109.445 6.21776 108.965 6.50576C108.677 6.60176 108.485 6.60176 108.197 6.50576C107.909 6.50576 107.621 6.60177 107.237 6.60177C107.045 6.60177 106.757 6.69776 106.469 6.69776C105.893 6.50576 105.317 6.79376 104.741 6.88976C104.357 6.98576 104.069 7.08176 103.781 6.98576C103.493 6.88976 103.301 7.08176 103.397 7.36976C103.493 8.42576 104.261 8.90576 105.125 8.32976C105.413 8.13776 105.605 8.13776 105.797 8.23376C106.373 8.32976 106.757 8.61776 107.333 8.32976C107.525 8.23376 107.813 8.23376 108.101 8.23376C108.773 8.23376 109.349 8.23376 109.925 8.13776C110.597 8.04176 111.173 7.94576 111.845 7.94576H113.669C113.957 7.94576 114.341 7.94576 114.725 7.84976C115.301 7.65776 115.973 7.46576 116.645 7.65776C116.933 7.75376 117.221 7.65777 117.413 7.56177C117.797 7.36977 118.181 7.65777 118.469 7.56177C118.949 7.27377 119.237 7.56176 119.717 7.65776C120.293 7.75376 120.965 7.75377 121.541 7.56177C121.637 7.46577 121.829 7.36976 121.925 7.46576C122.405 7.65776 122.693 7.36977 122.981 7.27377C123.365 7.17776 123.845 7.36976 124.037 6.88976C124.133 6.79376 124.229 6.79377 124.325 6.79377C124.805 6.79377 125.189 7.17776 125.669 6.88976H125.765C126.053 7.46576 126.629 7.27376 127.013 7.36976C127.493 7.36976 127.877 7.27376 128.261 7.36976C128.741 7.36976 129.221 7.36976 129.413 6.98576C129.509 6.79376 129.701 6.88976 129.797 6.98576C130.085 7.27376 130.373 7.17776 130.661 7.17776C130.949 7.17776 131.237 7.08177 131.621 7.08177C132.101 7.08177 132.677 7.17776 133.157 6.98576C133.733 6.79376 134.213 7.08177 134.789 7.08177H135.269C136.229 7.08177 137.093 7.08176 138.053 6.88976C139.013 6.69776 139.973 7.08177 140.933 6.79377C141.221 6.69777 141.605 6.69776 141.893 6.88976C142.277 7.08176 142.661 6.98576 143.045 6.88976C144.581 6.50576 146.117 6.79376 147.557 6.69776C148.613 6.60176 149.765 6.69776 150.821 6.69776C151.397 6.79376 151.781 6.40976 151.973 5.92976C152.645 6.69776 152.645 6.79376 153.413 6.69776C154.085 6.60176 154.853 6.69776 155.525 6.50576H156.197C156.677 6.79376 157.253 6.69776 157.829 6.69776C158.885 6.69776 159.941 6.60177 160.997 6.79377C161.573 6.88977 162.149 6.60177 162.821 6.60177C162.917 6.60177 163.013 6.40977 163.109 6.31377C163.397 5.73777 163.397 6.12177 163.397 6.31377C163.493 6.60177 163.685 6.69776 163.877 6.69776C164.261 6.69776 164.741 6.50576 165.029 6.69776C165.413 6.98576 165.989 6.50577 166.469 6.60177C166.949 6.69777 167.429 6.79376 167.909 6.98576H168.389C169.349 6.98576 170.213 6.98576 171.173 6.98576H172.517C172.805 6.98576 172.997 6.88976 173.285 6.98576C174.149 7.08176 175.013 6.98576 175.877 6.88976C176.453 6.79376 177.029 6.79376 177.605 6.98576C177.893 7.08176 178.277 6.88976 178.661 6.88976C178.757 6.88976 178.853 6.79376 179.045 6.88976C179.717 7.17776 180.389 7.08176 181.061 6.88976L182.213 6.60177C182.693 6.50577 182.885 7.17776 183.365 6.98576C183.653 6.88976 183.845 6.98577 184.133 7.08177H185.669C186.149 7.08177 186.533 6.79376 187.013 6.98576C187.493 7.17776 188.069 7.17776 188.549 7.17776H189.029C189.221 7.17776 189.413 7.17777 189.509 7.08177C189.893 6.69777 190.277 6.98576 190.757 6.98576H194.693C194.981 6.98576 195.269 6.79376 195.365 6.40976C195.461 5.92976 195.557 5.35376 195.365 4.77776ZM102.437 6.88976C101.957 6.88976 101.573 6.79376 101.189 7.17776C101.093 7.27376 100.901 7.27376 100.901 7.17776C100.517 6.98576 100.037 7.08177 99.6527 7.08177C97.6367 7.08177 95.7167 7.56176 93.7007 7.36976C93.7007 7.36976 93.6047 7.36976 93.6047 7.46576C93.1247 7.75376 92.5487 7.65776 92.0687 7.65776C91.7807 7.65776 91.4927 7.65776 91.3007 7.75376C90.7247 8.04176 90.0527 8.04176 89.4767 7.94576C88.9007 7.84976 88.5167 8.23376 87.9407 8.42576C87.8447 8.42576 87.7487 8.61776 87.7487 8.71376C87.6527 8.80976 87.6527 9.00177 87.6527 9.00177C87.5567 9.09777 87.4607 9.19376 87.3647 9.19376C87.1727 9.09776 87.1727 8.90577 87.1727 8.80977C87.1727 8.71377 87.2687 8.61777 87.3647 8.52177C87.4607 8.23377 87.3647 8.13776 87.0767 8.13776C86.7887 8.23376 86.4047 8.32976 86.1167 8.32976C85.3487 8.13776 84.4847 8.32976 83.7167 8.32976C83.2367 8.32976 82.8527 8.32976 82.4687 8.42576C82.0847 8.52176 81.7007 8.80976 81.3167 8.71376H80.0687C79.4927 8.80976 78.9167 8.71376 78.3407 8.90576C77.9567 9.00176 77.5727 9.19376 77.1887 9.09776C76.6127 9.00176 76.2287 9.09777 75.7487 9.28977C75.2687 9.48177 74.8847 9.57776 74.3087 9.38576C74.0207 9.28976 73.5407 9.28977 73.4447 9.48177C73.0607 9.86577 72.6767 9.67376 72.2927 9.67376H71.0447C70.5647 9.67376 70.1807 9.86576 69.7007 9.86576C69.1247 9.86576 68.5487 9.86576 68.1647 10.0578C67.6847 10.2498 67.2047 9.96176 66.7247 10.1538C65.8607 10.4418 64.9007 10.4418 64.0367 10.5378C62.8847 10.6338 61.9247 10.7298 61.1567 11.4978C61.1567 11.5938 60.9647 11.4978 60.8687 11.4978C60.8687 11.4018 60.8687 11.3058 60.9647 11.2098C60.9647 10.9218 60.8687 10.8258 60.6767 10.9218L59.8127 11.2098C59.7167 11.2098 59.6207 11.4018 59.7167 11.4978C59.7167 11.5938 59.8127 11.5938 59.9087 11.5938C60.1007 11.4978 60.2927 11.4018 60.3887 11.5938C60.3887 11.6898 60.2927 11.8818 60.1967 11.9778C60.1007 12.0738 59.9087 12.1698 60.1007 12.3618C60.1967 12.4578 60.2927 12.5538 60.4847 12.5538C60.8687 12.5538 61.3487 12.3618 61.8287 12.3618C62.3087 12.3618 62.6927 12.2658 62.8847 11.8818C62.9807 11.6898 63.3647 11.6898 63.4607 11.8818C63.7487 12.3618 64.1327 12.3618 64.5167 12.0738C64.9967 11.6898 65.4767 11.4018 66.0527 11.6898C66.2447 11.7858 66.5327 11.6898 66.8207 11.5938C67.1087 11.4978 67.2047 11.3058 67.2047 10.9218C67.2047 10.8258 67.3967 10.6338 67.4927 10.6338C67.6847 10.6338 67.7807 10.8258 67.8767 10.9218C67.8767 11.0178 67.8767 11.1138 67.7807 11.2098C67.7807 11.5938 67.8767 11.6898 68.1647 11.6898C68.7407 11.6898 68.8367 11.6898 68.8367 11.2098C68.8367 10.9218 68.9327 10.7298 69.1247 10.8258C69.4127 10.9218 69.6047 11.0178 69.7967 11.2098C69.9887 11.3058 70.1807 11.4018 70.3727 11.4018C71.0447 11.4018 71.6207 11.4018 72.1967 11.3058C73.4447 11.1138 74.5967 10.7298 75.7487 10.7298C76.0367 10.7298 76.3247 10.4418 76.6127 10.6338C77.1887 11.0178 77.6687 10.5378 78.1487 10.5378C78.3407 10.5378 78.6287 10.4418 78.8207 10.5378C79.3007 10.7298 79.6847 10.5378 80.0687 10.5378C80.7407 10.5378 81.3167 9.96176 81.9887 10.3458C83.0447 10.1538 84.1967 10.1538 85.2527 10.1538C85.7327 10.1538 86.2127 9.96176 86.5007 9.57776C86.7887 9.19376 86.6927 9.48176 86.8847 9.67376C86.9807 9.76976 87.1727 9.86576 87.2687 9.86576L88.2287 9.57776H89.5727C90.0527 9.57776 90.6287 9.38576 91.1087 9.57776C91.3007 9.57776 91.4927 9.57777 91.6847 9.48177C92.6447 9.38577 93.5087 9.00176 94.4687 9.09776L94.6607 8.90576C94.7567 8.80976 94.7567 8.71376 94.8527 8.90576C95.0447 9.00176 95.1407 9.19376 95.4287 9.19376C95.9087 9.19376 96.3887 9.00176 96.8687 9.09776C96.9647 9.19376 97.0607 9.00176 96.9647 8.90576C96.9647 8.80976 96.9647 8.61776 97.0607 8.71376C97.8287 9.00176 98.5967 8.80977 99.3647 8.80977H101.861C102.245 8.80977 102.245 8.61776 102.245 8.23376C102.149 7.94576 102.149 7.84976 102.533 7.84976C102.725 7.84976 102.725 7.75377 102.821 7.56177C102.917 7.36977 103.301 7.17776 103.013 6.88976C102.821 6.69776 102.629 6.88976 102.437 6.88976ZM59.0447 11.4978H58.0847C57.6047 11.4018 57.1247 11.7858 56.6447 11.6898C55.7807 11.4978 55.2047 11.8818 54.5327 12.0738C54.2447 12.1698 54.2447 12.4578 54.2447 12.7458V12.9378C54.9167 13.0338 55.6847 13.0338 56.3567 13.0338C56.6447 13.0338 56.9327 12.9378 57.0287 12.7458C57.2207 12.4578 57.4127 12.1698 57.6047 11.9778C57.8927 11.6898 58.2767 12.1698 58.6607 11.9778C58.7567 11.8818 58.9487 11.9778 59.0447 11.9778C59.1407 11.9778 59.2367 11.7858 59.2367 11.6898C59.1407 11.6898 59.1407 11.4978 59.0447 11.4978ZM53.7647 12.1698C53.5727 12.0738 53.3807 12.0738 53.1887 12.0738C52.7087 12.0738 52.2287 12.0738 51.8447 12.4578C51.6527 12.6498 51.2687 12.7458 50.9807 12.5538C50.5967 12.3618 50.2127 12.4578 49.8287 12.7458C49.4447 13.0338 49.4447 13.1298 48.8687 13.7058C48.7727 13.8018 48.7727 13.8018 48.8687 13.8978C49.1567 13.8978 49.4447 13.8978 49.6367 13.7058C50.0207 13.3218 50.5007 13.2258 51.0767 13.3218C52.0367 13.5138 53.0927 13.2258 54.0527 13.2258C54.1487 13.2258 54.1487 13.0338 54.2447 13.0338L53.9567 12.7458C53.8607 12.5538 53.9567 12.2658 53.7647 12.1698Z" fill="#F36611"/>
</svg>