<svg width="80" height="70" viewBox="0 0 80 70" fill="none" xmlns="http://www.w3.org/2000/svg">
<g id="Frame" clip-path="url(#clip0_256_1565)">
<path id="Vector" opacity="0.4" d="M7.1875 24.0625V27.3438C7.1875 29.1621 8.65039 30.625 10.4688 30.625H17.0312C18.8496 30.625 20.3125 29.1621 20.3125 27.3438V24.0625C20.3125 20.4395 17.373 17.5 13.75 17.5C10.127 17.5 7.1875 20.4395 7.1875 24.0625ZM7.1875 47.0312V50.3125C7.1875 53.9355 10.127 56.875 13.75 56.875C17.373 56.875 20.3125 53.9355 20.3125 50.3125V47.0312C20.3125 45.2129 18.8496 43.75 17.0312 43.75H10.4688C8.65039 43.75 7.1875 45.2129 7.1875 47.0312ZM24.6875 19.6875V27.3438C24.6875 29.1621 26.1504 30.625 27.9688 30.625H34.5312C36.3496 30.625 37.8125 29.1621 37.8125 27.3438V19.6875C37.8125 16.0645 34.873 13.125 31.25 13.125C27.627 13.125 24.6875 16.0645 24.6875 19.6875ZM24.6875 47.0312V50.3125C24.6875 53.9355 27.627 56.875 31.25 56.875C34.873 56.875 37.8125 53.9355 37.8125 50.3125V47.0312C37.8125 45.2129 36.3496 43.75 34.5312 43.75H27.9688C26.1504 43.75 24.6875 45.2129 24.6875 47.0312ZM42.1875 19.6875V27.3438C42.1875 29.1621 43.6504 30.625 45.4688 30.625H52.0312C53.8496 30.625 55.3125 29.1621 55.3125 27.3438V19.6875C55.3125 16.0645 52.373 13.125 48.75 13.125C45.127 13.125 42.1875 16.0645 42.1875 19.6875ZM42.1875 47.0312V50.3125C42.1875 53.9355 45.127 56.875 48.75 56.875C52.373 56.875 55.3125 53.9355 55.3125 50.3125V47.0312C55.3125 45.2129 53.8496 43.75 52.0312 43.75H45.4688C43.6504 43.75 42.1875 45.2129 42.1875 47.0312ZM59.6875 24.0625V27.3438C59.6875 29.1621 61.1504 30.625 62.9688 30.625H69.5312C71.3496 30.625 72.8125 29.1621 72.8125 27.3438V24.0625C72.8125 20.4395 69.873 17.5 66.25 17.5C62.627 17.5 59.6875 20.4395 59.6875 24.0625ZM59.6875 47.0312V50.3125C59.6875 53.9355 62.627 56.875 66.25 56.875C69.873 56.875 72.8125 53.9355 72.8125 50.3125V47.0312C72.8125 45.2129 71.3496 43.75 69.5312 43.75H62.9688C61.1504 43.75 59.6875 45.2129 59.6875 47.0312Z" fill="#22207E"/>
<path id="Vector_2" d="M13.75 4.375C6.50391 4.375 0.625 10.2539 0.625 17.5V26.25C0.625 31.0762 4.54883 35 9.375 35H70.625C75.4512 35 79.375 31.0762 79.375 26.25V17.5C79.375 10.2539 73.4961 4.375 66.25 4.375H13.75ZM31.25 13.125C34.873 13.125 37.8125 16.0645 37.8125 19.6875V27.3438C37.8125 29.1621 36.3496 30.625 34.5312 30.625H27.9688C26.1504 30.625 24.6875 29.1621 24.6875 27.3438V19.6875C24.6875 16.0645 27.627 13.125 31.25 13.125ZM42.1875 19.6875C42.1875 16.0645 45.127 13.125 48.75 13.125C52.373 13.125 55.3125 16.0645 55.3125 19.6875V27.3438C55.3125 29.1621 53.8496 30.625 52.0312 30.625H45.4688C43.6504 30.625 42.1875 29.1621 42.1875 27.3438V19.6875ZM13.75 17.5C17.373 17.5 20.3125 20.4395 20.3125 24.0625V27.3438C20.3125 29.1621 18.8496 30.625 17.0312 30.625H10.4688C8.65039 30.625 7.1875 29.1621 7.1875 27.3438V24.0625C7.1875 20.4395 10.127 17.5 13.75 17.5ZM59.6875 24.0625C59.6875 20.4395 62.627 17.5 66.25 17.5C69.873 17.5 72.8125 20.4395 72.8125 24.0625V27.3438C72.8125 29.1621 71.3496 30.625 69.5312 30.625H62.9688C61.1504 30.625 59.6875 29.1621 59.6875 27.3438V24.0625ZM13.75 65.625H66.25C73.4961 65.625 79.375 59.7461 79.375 52.5V48.125C79.375 43.2988 75.4512 39.375 70.625 39.375H9.375C4.54883 39.375 0.625 43.2988 0.625 48.125V52.5C0.625 59.7461 6.50391 65.625 13.75 65.625ZM13.75 56.875C10.127 56.875 7.1875 53.9355 7.1875 50.3125V47.0312C7.1875 45.2129 8.65039 43.75 10.4688 43.75H17.0312C18.8496 43.75 20.3125 45.2129 20.3125 47.0312V50.3125C20.3125 53.9355 17.373 56.875 13.75 56.875ZM24.6875 50.3125V47.0312C24.6875 45.2129 26.1504 43.75 27.9688 43.75H34.5312C36.3496 43.75 37.8125 45.2129 37.8125 47.0312V50.3125C37.8125 53.9355 34.873 56.875 31.25 56.875C27.627 56.875 24.6875 53.9355 24.6875 50.3125ZM48.75 56.875C45.127 56.875 42.1875 53.9355 42.1875 50.3125V47.0312C42.1875 45.2129 43.6504 43.75 45.4688 43.75H52.0312C53.8496 43.75 55.3125 45.2129 55.3125 47.0312V50.3125C55.3125 53.9355 52.373 56.875 48.75 56.875ZM59.6875 50.3125V47.0312C59.6875 45.2129 61.1504 43.75 62.9688 43.75H69.5312C71.3496 43.75 72.8125 45.2129 72.8125 47.0312V50.3125C72.8125 53.9355 69.873 56.875 66.25 56.875C62.627 56.875 59.6875 53.9355 59.6875 50.3125Z" fill="#22207E"/>
</g>
<defs>
<clipPath id="clip0_256_1565">
<rect width="78.75" height="70" fill="white" transform="translate(0.625)"/>
</clipPath>
</defs>
</svg>
