<svg width="88" height="70" viewBox="0 0 88 70" fill="none" xmlns="http://www.w3.org/2000/svg">
<g id="Frame" clip-path="url(#clip0_256_1560)">
<path id="Vector" opacity="0.4" d="M0.25 6.5625C0.25 2.93945 3.18945 0 6.8125 0H37.4375C41.0605 0 44 2.93945 44 6.5625V18.6484C39.9668 20.3027 36.7402 23.6523 35.291 27.9727L35.2227 28.1641C35.0859 27.084 34.1699 26.25 33.0488 26.25H28.6738C27.4707 26.25 26.4863 27.2344 26.4863 28.4375V32.8125C26.4863 34.0156 27.4707 35 28.6738 35H32.9395L32.1738 37.3105C28.7559 39.6758 26.5 43.6406 26.5 48.125V61.25V65.625H6.8125C3.18945 65.625 0.25 62.6855 0.25 59.0625V6.5625ZM9 15.3125V19.6875C9 20.8906 9.98438 21.875 11.1875 21.875H15.5625C16.7656 21.875 17.75 20.8906 17.75 19.6875V15.3125C17.75 14.1094 16.7656 13.125 15.5625 13.125H11.1875C9.98438 13.125 9 14.1094 9 15.3125ZM9 28.4375V32.8125C9 34.0156 9.98438 35 11.1875 35H15.5625C16.7656 35 17.75 34.0156 17.75 32.8125V28.4375C17.75 27.2344 16.7656 26.25 15.5625 26.25H11.1875C9.98438 26.25 9 27.2344 9 28.4375ZM9 41.5625V45.9375C9 47.1406 9.98438 48.125 11.1875 48.125H15.5625C16.7656 48.125 17.75 47.1406 17.75 45.9375V41.5625C17.75 40.3594 16.7656 39.375 15.5625 39.375H11.1875C9.98438 39.375 9 40.3594 9 41.5625ZM26.5 15.3125V19.6875C26.5 20.8906 27.4844 21.875 28.6875 21.875H33.0625C34.2656 21.875 35.25 20.8906 35.25 19.6875V15.3125C35.25 14.1094 34.2656 13.125 33.0625 13.125H28.6875C27.4844 13.125 26.5 14.1094 26.5 15.3125Z" fill="#22207E"/>
<path id="Vector_2" d="M47.7461 32.1152L45.3262 39.375H73.2852L70.8652 32.1152C70.5645 31.2266 69.7305 30.625 68.7871 30.625H49.8105C48.8672 30.625 48.0332 31.2266 47.7324 32.1152H47.7461ZM35.8105 40.2363L39.4473 29.3398C40.9375 24.8828 45.1211 21.875 49.8242 21.875H68.8008C73.5039 21.875 77.6875 24.8828 79.1777 29.3535L82.8145 40.25C85.7266 41.6582 87.75 44.6523 87.75 48.125V61.25V65.625C87.75 68.0449 85.7949 70 83.375 70H81.1875C78.7676 70 76.8125 68.0449 76.8125 65.625V61.25H41.8125V65.625C41.8125 68.0449 39.8574 70 37.4375 70H35.25C32.8301 70 30.875 68.0449 30.875 65.625V61.25V48.125C30.875 44.6523 32.8984 41.6582 35.8105 40.25V40.2363ZM45.0938 50.3125C45.0938 49.4423 44.748 48.6077 44.1327 47.9923C43.5173 47.377 42.6827 47.0312 41.8125 47.0312C40.9423 47.0312 40.1077 47.377 39.4923 47.9923C38.877 48.6077 38.5312 49.4423 38.5312 50.3125C38.5312 51.1827 38.877 52.0173 39.4923 52.6327C40.1077 53.248 40.9423 53.5938 41.8125 53.5938C42.6827 53.5938 43.5173 53.248 44.1327 52.6327C44.748 52.0173 45.0938 51.1827 45.0938 50.3125ZM76.8125 53.5938C77.6827 53.5938 78.5173 53.248 79.1327 52.6327C79.7481 52.0173 80.0938 51.1827 80.0938 50.3125C80.0938 49.4423 79.7481 48.6077 79.1327 47.9923C78.5173 47.377 77.6827 47.0312 76.8125 47.0312C75.9423 47.0312 75.1077 47.377 74.4923 47.9923C73.8769 48.6077 73.5312 49.4423 73.5312 50.3125C73.5312 51.1827 73.8769 52.0173 74.4923 52.6327C75.1077 53.248 75.9423 53.5938 76.8125 53.5938Z" fill="#22207E"/>
</g>
<defs>
<clipPath id="clip0_256_1560">
<rect width="87.5" height="70" fill="white" transform="translate(0.25)"/>
</clipPath>
</defs>
</svg>
