<svg width="62" height="70" viewBox="0 0 62 70" fill="none" xmlns="http://www.w3.org/2000/svg">
<g id="Frame">
<path id="Vector" opacity="0.4" d="M25.8184 7.12305C23.5215 5.3457 20.7051 4.375 17.8066 4.375C10.5879 4.375 4.75 10.2129 4.75 17.4316V18.2793C4.75 20.4395 5.25586 22.5586 6.21289 24.5L9.42578 30.9395C10.041 32.1563 10.4648 33.4551 10.7109 34.7949L15.7285 62.9316C16.002 64.4629 17.3145 65.584 18.8594 65.6387C20.4043 65.6934 21.7852 64.627 22.1406 63.1231L26.0918 46.5391C26.6523 44.2559 28.6758 42.6562 31 42.6562C33.3242 42.6562 35.3477 44.2559 35.8945 46.5254L39.8457 63.1094C40.2012 64.627 41.582 65.6797 43.127 65.625C44.6719 65.5703 45.9844 64.4492 46.2578 62.918L51.2754 34.7812C51.5215 33.4414 51.9453 32.1426 52.5605 30.9258L55.7734 24.4863C56.7441 22.5586 57.2363 20.4258 57.2363 18.2656V17.9785C57.2363 10.459 51.1387 4.36133 43.6191 4.36133C40.3242 4.36133 37.1387 5.56445 34.6504 7.72461L34.2129 8.10742L36.8789 10.1855C37.8359 10.9238 38 12.3047 37.2617 13.2617C36.5234 14.2188 35.1426 14.3828 34.1855 13.6445L30.8496 11.0469L25.791 7.10938L25.8184 7.12305Z" fill="#22207E"/>
</g>
</svg>
