<svg width="80" height="70" viewBox="0 0 80 70" fill="none" xmlns="http://www.w3.org/2000/svg">
<g id="Frame" clip-path="url(#clip0_256_1570)">
<path id="Vector" opacity="0.4" d="M13.75 25.8809C13.75 24.7188 14.2148 23.6113 15.0352 22.791L19.041 18.7852C19.8613 17.9648 20.3262 16.8574 20.3262 15.6953L20.3125 8.75H24.6875V15.6816C24.6875 16.8438 25.1523 17.9512 25.9727 18.7715L29.9785 22.7773C30.7988 23.5977 31.2637 24.7051 31.2637 25.8672V34.9863C31.2637 37.4062 29.3086 39.3613 26.8887 39.3613H18.1387C15.7188 39.3613 13.7637 37.4062 13.7637 34.9863V25.8672L13.75 25.8809Z" fill="#22207E"/>
<path id="Vector_2" d="M20.3125 8.75V15.6816C20.3125 16.8438 19.8477 17.9512 19.0273 18.7715L15.0215 22.7773C14.2012 23.5977 13.7363 24.7051 13.7363 25.8672L13.75 35C13.75 37.4199 15.7051 39.375 18.125 39.375H26.875C29.2949 39.375 31.25 37.4199 31.25 35V25.8809C31.25 24.7188 30.7852 23.6113 29.9648 22.791L25.959 18.7852C25.1387 17.9648 24.6738 16.8574 24.6738 15.6953L24.6875 8.75H53.125H61.875C71.541 8.75 79.375 16.584 79.375 26.25C79.375 35.916 71.541 43.75 61.875 43.75H57.5V48.125C57.5 55.3711 51.6211 61.25 44.375 61.25H18.125C10.8789 61.25 5 55.3711 5 48.125V13.125C5 10.7051 6.95508 8.75 9.375 8.75H20.3125ZM57.5 35H61.875C66.7012 35 70.625 31.0762 70.625 26.25C70.625 21.4238 66.7012 17.5 61.875 17.5H57.5V35Z" fill="#22207E"/>
</g>
<defs>
<clipPath id="clip0_256_1570">
<rect width="78.75" height="70" fill="white" transform="translate(0.625)"/>
</clipPath>
</defs>
</svg>
