<svg width="70" height="70" viewBox="0 0 70 70" fill="none" xmlns="http://www.w3.org/2000/svg">
<g id="Frame" clip-path="url(#clip0_256_1573)">
<path id="Vector" opacity="0.4" d="M0 35V40.4688C0 42.2871 1.46289 43.75 3.28125 43.75C5.09961 43.75 6.5625 42.2871 6.5625 40.4688V35C6.5625 19.291 19.291 6.5625 35 6.5625C50.709 6.5625 63.4375 19.291 63.4375 35V54.7012C63.4375 57.7227 60.9902 60.1699 57.9687 60.1699L42.875 60.1562C41.7402 58.1875 39.6211 56.875 37.1875 56.875H32.8125C29.1894 56.875 26.25 59.8145 26.25 63.4375C26.25 67.0605 29.1894 70 32.8125 70H37.1875C39.6211 70 41.7402 68.6738 42.875 66.7188L57.9687 66.7324C64.6133 66.7324 70.0137 61.3457 70.0137 54.7012L70 35C70 15.668 54.332 0 35 0C15.668 0 0 15.668 0 35Z" fill="#22207E"/>
<path id="Vector_2" d="M19.6875 28.4375C14.8613 28.4375 10.9375 32.3613 10.9375 37.1875V43.75C10.9375 48.5762 14.8613 52.5 19.6875 52.5H21.875C24.2949 52.5 26.25 50.5449 26.25 48.125V32.8125C26.25 30.3926 24.2949 28.4375 21.875 28.4375H19.6875ZM50.3125 28.4375H48.125C45.7051 28.4375 43.75 30.3926 43.75 32.8125V48.125C43.75 50.5449 45.7051 52.5 48.125 52.5H50.3125C55.1387 52.5 59.0625 48.5762 59.0625 43.75V37.1875C59.0625 32.3613 55.1387 28.4375 50.3125 28.4375Z" fill="#22207E"/>
</g>
<defs>
<clipPath id="clip0_256_1573">
<rect width="70" height="70" fill="white"/>
</clipPath>
</defs>
</svg>
